999
dxflib 2.0.4.8
  0
SECTION
  2
HEADER
  9
$ACADVER
  1
AC1015
  9
$HANDSEED
  5
FFFF
  9
$DIMASSOC
280
1
  9
$USERR4
 40
0.0
  9
$DIMTDEC
 70
4
  9
$DIMTAD
 70
0
  9
$XCLIPFRAME
290
0
  9
$CMLSTYLE
  2
Standard
  9
$VISRETAIN
 70
1
  9
$TILEMODE
 70
1
  9
$SHADEDIF
 70
70
  9
$USERR5
 40
0.0
  9
$UCSYDIR
 10
0.0
 20
1.0
 30
0.0
  9
$CHAMFERA
 40
0.0
  9
$MENU
  1
.
  9
$DIMALTZ
 70
0
  9
$CLAYER
  8
0
  9
$OLESTARTUP
290
0
  9
$UCSXDIR
 10
1.0
 20
0.0
 30
0.0
  9
$CHAMFERB
 40
0.0
  9
$DIMADEC
 70
0
  9
$DIMUPT
 70
0
  9
$DIMASZ
 40
0.0708661417322835
  9
$TRACEWID
 40
0.05
  9
$REGENMODE
 70
1
  9
$ORTHOMODE
 70
0
  9
$EXTMIN
 10
0.0
 20
0.0
 30
0.0
  9
$ENDCAPS
280
0
  9
$MEASUREMENT
 70
0
  9
$CMLJUST
 70
0
  9
$PUCSYDIR
 10
0.0
 20
1.0
 30
0.0
  9
$ANGBASE
 50
0.0
  9
$USRTIMER
 70
1
  9
$CHAMFERC
 40
0.0
  9
$SKETCHINC
 40
0.1
  9
$DIMGAP
 40
0.09
  9
$DIMTFAC
 40
1.0
  9
$DIMSAH
 70
0
  9
$DIMALT
 70
0
  9
$DIMSHO
 70
1
  9
$VERSIONGUID
  2
{C6AD77CD-D509-4A32-A067-63A92682878E}
  9
$LWDISPLAY
290
0
  9
$PUCSXDIR
 10
1.0
 20
0.0
 30
0.0
  9
$SURFTYPE
 70
6
  9
$SPLFRAME
 70
0
  9
$CHAMFERD
 40
0.0
  9
$DIMALTRND
 40
0.0
  9
$DIMALTTD
 70
2
  9
$DIMTSZ
 40
0.0
  9
$LIMMIN
 10
0.0
 20
0.0
  9
$SORTENTS
280
127
  9
$CELWEIGHT
370
-1
  9
$SURFTAB1
 70
6
  9
$SPLINESEGS
 70
8
  9
$AUPREC
 70
0
  9
$LUNITS
 70
2
  9
$DWGCODEPAGE
  3
ANSI_1252
  9
$PSTYLEMODE
290
1
  9
$UNITMODE
 70
0
  9
$USERI1
 70
0
  9
$UCSORTHOVIEW
 70
0
  9
$SURFTAB2
 70
6
  9
$TDUUPDATE
 40
2455688.1750958450138569
  9
$TDUCREATE
 40
2455688.1750958450138569
  9
$SKPOLY
 70
0
  9
$ELEVATION
 40
0.0
  9
$DIMDSEP
 70
46
  9
$DIMCEN
 40
0.09
  9
$DIMRND
 40
0.0
  9
$INSBASE
 10
0.0
 20
0.0
 30
0.0
  9
$INSUNITS
 70
1
  9
$USERI2
 70
0
  9
$UCSORGRIGHT
 10
0.0
 20
0.0
 30
0.0
  9
$UCSORG
 10
0.0
 20
0.0
 30
0.0
  9
$PELEVATION
 40
0.0
  9
$DIMEXO
 40
0.0625
  9
$TEXTSIZE
 40
0.2
  9
$FILLMODE
 70
1
  9
$EXTMAX
 10
14.5355339170682694
 20
11.8713203546951807
 30
0.0
  9
$JOINSTYLE
280
0
  9
$USERI3
 70
0
  9
$PUCSORGBOTTOM
 10
0.0
 20
0.0
 30
0.0
  9
$SURFU
 70
6
  9
$ANGDIR
 70
0
  9
$TDUSRTIMER
 40
0.0000348727
  9
$DIMLWD
 70
-2
  9
$DIMTZIN
 70
0
  9
$DIMTOLJ
 70
1
  9
$DIMZIN
 70
0
  9
$DIMDLE
 40
0.0
  9
$DIMSCALE
 40
1.0
  9
$WORLDVIEW
 70
1
  9
$USERI4
 70
0
  9
$SURFV
 70
6
  9
$DIMLWE
 70
-2
  9
$DIMLUNIT
 70
2
  9
$DIMATFIT
 70
3
  9
$DIMALTTZ
 70
0
  9
$DIMJUST
 70
0
  9
$QTEXTMODE
 70
0
  9
$LIMMAX
 10
14.5355339170682694
 20
11.8713203546951807
  9
$ACADMAINTVER
 70
104
  9
$INTERSECTIONDISPLAY
280
0
  9
$HIDETEXT
280
1
  9
$EXTNAMES
290
1
  9
$PROXYGRAPHICS
 70
1
  9
$USERI5
 70
0
  9
$UCSORGTOP
 10
0.0
 20
0.0
 30
0.0
  9
$PDMODE
 70
0
  9
$LIMCHECK
 70
0
  9
$THICKNESS
 40
0.0
  9
$DIMAZIN
 70
0
  9
$DIMSE1
 70
0
  9
$DIMLIM
 70
0
  9
$DIMTXT
 40
0.0708661417322835
  9
$ATTMODE
 70
1
  9
$INTERSECTIONCOLOR
 70
257
  9
$OBSLTYPE
280
0
  9
$OBSCOLOR
 70
257
  9
$XEDIT
290
1
  9
$PEXTMAX
 10
14.5355339170682694
 20
11.8713203546951807
 30
0.0
  9
$PEXTMIN
 10
0.0
 20
0.0
 30
0.0
  9
$PUCSORG
 10
0.0
 20
0.0
 30
0.0
  9
$SPLINETYPE
 70
6
  9
$TDINDWG
 40
0.0000348727
  9
$LUPREC
 70
4
  9
$DIMSOXD
 70
0
  9
$DIMLFAC
 40
1.0
  9
$DIMSE2
 70
0
  9
$DIMTOH
 70
1
  9
$CELTYPE
  6
ByLayer
  9
$PSVPSCALE
 40
0.0
  9
$FINGERPRINTGUID
  2
{196D251F-E18E-4776-9794-50DB5BB7E978}
  9
$PLIMCHECK
 70
0
  9
$PUCSORGRIGHT
 10
0.0
 20
0.0
 30
0.0
  9
$PLINEWID
 40
0.0
  9
$DIMFRAC
 70
0
  9
$DIMSTYLE
  2
Standard
  9
$DIMTVP
 40
0.0
  9
$DIMASO
 70
1
  9
$DIMTM
 40
0.0
  9
$DIMDLI
 40
0.38
  9
$DISPSILH
 70
0
  9
$CECOLOR
 62
256
  9
$INDEXCTL
280
0
  9
$TREEDEPTH
 70
3020
  9
$PLIMMAX
 10
14.5355339170682694
 20
11.8713203546951807
  9
$PLIMMIN
 10
0.0
 20
0.0
  9
$MAXACTVP
 70
64
  9
$UCSORGBACK
 10
0.0
 20
0.0
 30
0.0
  9
$UCSORGLEFT
 10
0.0
 20
0.0
 30
0.0
  9
$TDUPDATE
 40
2455688.0084291780367494
  9
$FILLETRAD
 40
0.0
  9
$DIMALTU
 70
2
  9
$DIMDEC
 70
4
  9
$DIMCLRT
 70
0
  9
$DIMALTD
 70
2
  9
$DIMTIH
 70
1
  9
$LTSCALE
 40
1.0
  9
$CEPSNTYPE
380
0
  9
$CMLSCALE
 40
1.0
  9
$PINSBASE
 10
0.0
 20
0.0
 30
0.0
  9
$USERR1
 40
0.0
  9
$PUCSORTHOVIEW
 70
0
  9
$PDSIZE
 40
0.0
  9
$DIMTXSTY
  7
Standard
  9
$DIMCLRD
 70
0
  9
$DIMEXE
 40
0.18
  9
$CELTSCALE
 40
1.0
  9
$PSLTSCALE
 70
1
  9
$PLINEGEN
 70
0
  9
$SHADEDGE
 70
3
  9
$USERR2
 40
0.0
  9
$PUCSORGTOP
 10
0.0
 20
0.0
 30
0.0
  9
$UCSORGFRONT
 10
0.0
 20
0.0
 30
0.0
  9
$TDCREATE
 40
2455688.0084291780367494
  9
$DIMTMOVE
 70
0
  9
$DIMAUNIT
 70
0
  9
$DIMSD1
 70
0
  9
$DIMCLRE
 70
0
  9
$DIMTOFL
 70
0
  9
$DIMALTF
 40
25.3999999999999986
  9
$DIMTOL
 70
0
  9
$DIMTP
 40
0.0
  9
$TEXTSTYLE
  7
Standard
  9
$HALOGAP
280
0
  9
$USERR3
 40
0.0
  9
$PUCSORGBACK
 10
0.0
 20
0.0
 30
0.0
  9
$PUCSORGFRONT
 10
0.0
 20
0.0
 30
0.0
  9
$PUCSORGLEFT
 10
0.0
 20
0.0
 30
0.0
  9
$UCSORGBOTTOM
 10
0.0
 20
0.0
 30
0.0
  9
$AUNITS
 70
0
  9
$DIMSD2
 70
0
  9
$DIMTIX
 70
0
  9
$MIRRTEXT
 70
0
  0
ENDSEC
  0
SECTION
  2
TABLES
  0
TABLE
  2
VPORT
  5
8
100
AcDbSymbolTable
 70
1
  0
VPORT
  5
30
100
AcDbSymbolTableRecord
100
AcDbViewportTableRecord
  2
*Active
 70
0
 10
0.0
 20
0.0
 11
1.0
 21
1.0
 12
286.3055555555554861
 22
148.5
 13
0.0
 23
0.0
 14
10.0
 24
10.0
 15
10.0
 25
10.0
 16
0.0
 26
0.0
 36
1.0
 17
0.0
 27
0.0
 37
0.0
 40
297.0
 41
1.92798353909465
 42
50.0
 43
0.0
 44
0.0
 50
0.0
 51
0.0
 71
0
 72
100
 73
1
 74
3
 75
1
 76
1
 77
0
 78
0
281
0
 65
1
110
0.0
120
0.0
130
0.0
111
1.0
121
0.0
131
0.0
112
0.0
122
1.0
132
0.0
 79
0
146
0.0
  0
ENDTAB
  0
TABLE
  2
LTYPE
  5
5
100
AcDbSymbolTable
 70
21
  0
LTYPE
  5
14
100
AcDbSymbolTableRecord
100
AcDbLinetypeTableRecord
  2
ByBlock
 70
0
  3

 72
65
 73
0
 40
0.0
  0
LTYPE
  5
15
100
AcDbSymbolTableRecord
100
AcDbLinetypeTableRecord
  2
ByLayer
 70
0
  3

 72
65
 73
0
 40
0.0
  0
LTYPE
  5
16
100
AcDbSymbolTableRecord
100
AcDbLinetypeTableRecord
  2
CONTINUOUS
 70
0
  3
Solid line
 72
65
 73
0
 40
0.0
  0
LTYPE
  5
31
100
AcDbSymbolTableRecord
100
AcDbLinetypeTableRecord
  2
DOT
 70
0
  3
Dot . . . . . . . . . . . . . . . . . . . . . .
 72
65
 73
2
 40
6.3499999999999996
 49
0.0
 74
0
 49
-6.3499999999999996
 74
0
  0
LTYPE
  5
32
100
AcDbSymbolTableRecord
100
AcDbLinetypeTableRecord
  2
DOT2
 70
0
  3
Dot (.5x) .....................................
 72
65
 73
2
 40
3.1749999999999998
 49
0.0
 74
0
 49
-3.1749999999999998
 74
0
  0
LTYPE
  5
33
100
AcDbSymbolTableRecord
100
AcDbLinetypeTableRecord
  2
DOTX2
 70
0
  3
Dot (2x) .  .  .  .  .  .  .  .  .  .  .  .  .
 72
65
 73
2
 40
12.6999999999999993
 49
0.0
 74
0
 49
-12.6999999999999993
 74
0
  0
LTYPE
  5
34
100
AcDbSymbolTableRecord
100
AcDbLinetypeTableRecord
  2
DASHED
 70
0
  3
Dashed __ __ __ __ __ __ __ __ __ __ __ __ __ _
 72
65
 73
2
 40
19.0500000000000007
 49
12.6999999999999993
 74
0
 49
-6.3499999999999996
 74
0
  0
LTYPE
  5
35
100
AcDbSymbolTableRecord
100
AcDbLinetypeTableRecord
  2
DASHED2
 70
0
  3
Dashed (.5x) _ _ _ _ _ _ _ _ _ _ _ _ _ _ _ _ _
 72
65
 73
2
 40
9.5250000000000004
 49
6.3499999999999996
 74
0
 49
-3.1749999999999998
 74
0
  0
LTYPE
  5
36
100
AcDbSymbolTableRecord
100
AcDbLinetypeTableRecord
  2
DASHEDX2
 70
0
  3
Dashed (2x) ____  ____  ____  ____  ____  ___
 72
65
 73
2
 40
38.1000000000000014
 49
25.3999999999999986
 74
0
 49
-12.6999999999999993
 74
0
  0
LTYPE
  5
37
100
AcDbSymbolTableRecord
100
AcDbLinetypeTableRecord
  2
DASHDOT
 70
0
  3
Dash dot __ . __ . __ . __ . __ . __ . __ . __
 72
65
 73
4
 40
25.3999999999999986
 49
12.6999999999999993
 74
0
 49
-6.3499999999999996
 74
0
 49
0.0
 74
0
 49
-6.3499999999999996
 74
0
  0
LTYPE
  5
38
100
AcDbSymbolTableRecord
100
AcDbLinetypeTableRecord
  2
DASHDOT2
 70
0
  3
Dash dot (.5x) _._._._._._._._._._._._._._._.
 72
65
 73
4
 40
12.6999999999999993
 49
6.3499999999999996
 74
0
 49
-3.1749999999999998
 74
0
 49
0.0
 74
0
 49
-3.1749999999999998
 74
0
  0
LTYPE
  5
39
100
AcDbSymbolTableRecord
100
AcDbLinetypeTableRecord
  2
DASHDOTX2
 70
0
  3
Dash dot (2x) ____  .  ____  .  ____  .  ___
 72
65
 73
4
 40
50.7999999999999972
 49
25.3999999999999986
 74
0
 49
-12.6999999999999993
 74
0
 49
0.0
 74
0
 49
-12.6999999999999993
 74
0
  0
LTYPE
  5
3A
100
AcDbSymbolTableRecord
100
AcDbLinetypeTableRecord
  2
DIVIDE
 70
0
  3
Divide ____ . . ____ . . ____ . . ____ . . ____
 72
65
 73
6
 40
31.75
 49
12.6999999999999993
 74
0
 49
-6.3499999999999996
 74
0
 49
0.0
 74
0
 49
-6.3499999999999996
 74
0
 49
0.0
 74
0
 49
-6.3499999999999996
 74
0
  0
LTYPE
  5
3B
100
AcDbSymbolTableRecord
100
AcDbLinetypeTableRecord
  2
DIVIDE2
 70
0
  3
Divide (.5x) __..__..__..__..__..__..__..__.._
 72
65
 73
6
 40
15.875
 49
6.3499999999999996
 74
0
 49
-3.1749999999999998
 74
0
 49
0.0
 74
0
 49
-3.1749999999999998
 74
0
 49
0.0
 74
0
 49
-3.1749999999999998
 74
0
  0
LTYPE
  5
3C
100
AcDbSymbolTableRecord
100
AcDbLinetypeTableRecord
  2
DIVIDEX2
 70
0
  3
Divide (2x) ________  .  .  ________  .  .  _
 72
65
 73
6
 40
63.5
 49
25.3999999999999986
 74
0
 49
-12.6999999999999993
 74
0
 49
0.0
 74
0
 49
-12.6999999999999993
 74
0
 49
0.0
 74
0
 49
-12.6999999999999993
 74
0
  0
LTYPE
  5
3D
100
AcDbSymbolTableRecord
100
AcDbLinetypeTableRecord
  2
CENTER
 70
0
  3
Center ____ _ ____ _ ____ _ ____ _ ____ _ ____
 72
65
 73
4
 40
50.7999999999999972
 49
31.75
 74
0
 49
-6.3499999999999996
 74
0
 49
6.3499999999999996
 74
0
 49
-6.3499999999999996
 74
0
  0
LTYPE
  5
3E
100
AcDbSymbolTableRecord
100
AcDbLinetypeTableRecord
  2
CENTER2
 70
0
  3
Center (.5x) ___ _ ___ _ ___ _ ___ _ ___ _ ___
 72
65
 73
4
 40
28.5749999999999993
 49
19.0500000000000007
 74
0
 49
-3.1749999999999998
 74
0
 49
3.1749999999999998
 74
0
 49
-3.1749999999999998
 74
0
  0
LTYPE
  5
3F
100
AcDbSymbolTableRecord
100
AcDbLinetypeTableRecord
  2
CENTERX2
 70
0
  3
Center (2x) ________  __  ________  __  _____
 72
65
 73
4
 40
101.5999999999999943
 49
63.5
 74
0
 49
-12.6999999999999993
 74
0
 49
12.6999999999999993
 74
0
 49
-12.6999999999999993
 74
0
  0
LTYPE
  5
40
100
AcDbSymbolTableRecord
100
AcDbLinetypeTableRecord
  2
BORDER
 70
0
  3
Border __ __ . __ __ . __ __ . __ __ . __ __ .
 72
65
 73
6
 40
44.4500000000000028
 49
12.6999999999999993
 74
0
 49
-6.3499999999999996
 74
0
 49
12.6999999999999993
 74
0
 49
-6.3499999999999996
 74
0
 49
0.0
 74
0
 49
-6.3499999999999996
 74
0
  0
LTYPE
  5
41
100
AcDbSymbolTableRecord
100
AcDbLinetypeTableRecord
  2
BORDER2
 70
0
  3
Border (.5x) __.__.__.__.__.__.__.__.__.__.__.
 72
65
 73
6
 40
22.2250000000000014
 49
6.3499999999999996
 74
0
 49
-3.1749999999999998
 74
0
 49
6.3499999999999996
 74
0
 49
-3.1749999999999998
 74
0
 49
0.0
 74
0
 49
-3.1749999999999998
 74
0
  0
LTYPE
  5
42
100
AcDbSymbolTableRecord
100
AcDbLinetypeTableRecord
  2
BORDERX2
 70
0
  3
Border (2x) ____  ____  .  ____  ____  .  ___
 72
65
 73
6
 40
88.9000000000000057
 49
25.3999999999999986
 74
0
 49
-12.6999999999999993
 74
0
 49
25.3999999999999986
 74
0
 49
-12.6999999999999993
 74
0
 49
0.0
 74
0
 49
-12.6999999999999993
 74
0
  0
ENDTAB
  0
TABLE
  2
LAYER
  5
2
100
AcDbSymbolTable
 70
4
  0
LAYER
  5
10
100
AcDbSymbolTableRecord
100
AcDbLayerTableRecord
  2
0
 70
0
 62
7
  6
CONTINUOUS
370
-3
390
F
  0
LAYER
  5
43
100
AcDbSymbolTableRecord
100
AcDbLayerTableRecord
  2
IV_ARC_CENTERS
 70
0
 62
7
  6
CONTINUOUS
370
50
390
F
  0
LAYER
  5
44
100
AcDbSymbolTableRecord
100
AcDbLayerTableRecord
  2
IV_INTERIOR_PROFILES
 70
0
 62
7
  6
CONTINUOUS
370
50
390
F
  0
LAYER
  5
45
100
AcDbSymbolTableRecord
100
AcDbLayerTableRecord
  2
IV_OUTER_PROFILE
 70
0
 62
7
  6
CONTINUOUS
370
50
390
F
  0
ENDTAB
  0
TABLE
  2
STYLE
  5
3
100
AcDbSymbolTable
 70
1
  0
STYLE
  5
11
100
AcDbSymbolTableRecord
100
AcDbTextStyleTableRecord
  2
Standard
 70
0
 40
0.0
 41
0.75
 50
0.0
 71
0
 42
2.5
  3
txt
  4

  0
ENDTAB
  0
TABLE
  2
VIEW
  5
6
100
AcDbSymbolTable
 70
0
  0
ENDTAB
  0
TABLE
  2
UCS
  5
7
100
AcDbSymbolTable
 70
0
  0
ENDTAB
  0
TABLE
  2
APPID
  5
9
100
AcDbSymbolTable
 70
1
  0
APPID
  5
12
100
AcDbSymbolTableRecord
100
AcDbRegAppTableRecord
  2
ACAD
 70
0
  0
ENDTAB
  0
TABLE
  2
DIMSTYLE
  5
A
100
AcDbSymbolTable
 70
1
100
AcDbDimStyleTable
 71
0
  0
DIMSTYLE
105
27
100
AcDbSymbolTableRecord
100
AcDbDimStyleTableRecord
  2
Standard
 41
0.0708661417322835
 42
0.0625
 43
3.75
 44
0.18
 70
0
 73
0
 74
0
 77
1
 78
8
140
0.0708661417322835
141
2.5
143
0.03937007874016
147
0.09
171
3
172
1
271
2
272
2
274
3
278
44
283
0
284
8
340
11
  0
ENDTAB
  0
TABLE
  2
BLOCK_RECORD
  5
1
100
AcDbSymbolTable
 70
1
  0
BLOCK_RECORD
  5
1F
100
AcDbSymbolTableRecord
100
AcDbBlockTableRecord
  2
*Model_Space
340
22
  0
BLOCK_RECORD
  5
1B
100
AcDbSymbolTableRecord
100
AcDbBlockTableRecord
  2
*Paper_Space
340
1E
  0
BLOCK_RECORD
  5
23
100
AcDbSymbolTableRecord
100
AcDbBlockTableRecord
  2
*Paper_Space0
340
26
  0
ENDTAB
  0
ENDSEC
  0
SECTION
  2
BLOCKS
  0
BLOCK
  5
20
100
AcDbEntity
  8
0
100
AcDbBlockBegin
  2
*Model_Space
 70
0
 10
0.0
 20
0.0
 30
0.0
  3
*Model_Space
  1

  0
ENDBLK
  5
21
100
AcDbEntity
  8
0
100
AcDbBlockEnd
  0
BLOCK
  5
1C
100
AcDbEntity
 67
1
  8
0
100
AcDbBlockBegin
  2
*Paper_Space
 70
0
 10
0.0
 20
0.0
 30
0.0
  3
*Paper_Space
  1

  0
ENDBLK
  5
1D
100
AcDbEntity
 67
1
  8
0
100
AcDbBlockEnd
  0
BLOCK
  5
24
100
AcDbEntity
  8
0
100
AcDbBlockBegin
  2
*Paper_Space0
 70
0
 10
0.0
 20
0.0
 30
0.0
  3
*Paper_Space0
  1

  0
ENDBLK
  5
25
100
AcDbEntity
  8
0
100
AcDbBlockEnd
  0
ENDSEC
  0
SECTION
  2
ENTITIES
  0
POINT
  5
46
100
AcDbEntity
100
AcDbPoint
  8
IV_ARC_CENTERS
 62
256
370
-1
  6
ByLayer
 10
16.0
 20
1.9374999999999893
 30
0.0
  0
CIRCLE
  5
47
100
AcDbEntity
100
AcDbCircle
  8
IV_INTERIOR_PROFILES
 62
256
370
-1
  6
ByLayer
 10
13.5000000000000018
 20
4.4374999999999893
 30
0.0
 40
0.0625
  0
CIRCLE
  5
48
100
AcDbEntity
100
AcDbCircle
  8
IV_INTERIOR_PROFILES
 62
256
370
-1
  6
ByLayer
 10
16.0
 20
4.4374999999999893
 30
0.0
 40
0.0625
  0
CIRCLE
  5
49
100
AcDbEntity
100
AcDbCircle
  8
IV_INTERIOR_PROFILES
 62
256
370
-1
  6
ByLayer
 10
16.0
 20
1.9374999999999893
 30
0.0
 40
0.0625
  0
CIRCLE
  5
4A
100
AcDbEntity
100
AcDbCircle
  8
IV_INTERIOR_PROFILES
 62
256
370
-1
  6
ByLayer
 10
13.4999999999999911
 20
1.9374999999999893
 30
0.0
 40
0.0625
  0
CIRCLE
  5
4B
100
AcDbEntity
100
AcDbCircle
  8
IV_INTERIOR_PROFILES
 62
256
370
-1
  6
ByLayer
 10
19.5537718740173432
 20
1.2095649628674003
 30
0.0
 40
0.0625
  0
CIRCLE
  5
4C
100
AcDbEntity
100
AcDbCircle
  8
IV_INTERIOR_PROFILES
 62
256
370
-1
  6
ByLayer
 10
9.9462281259826479
 20
1.2095649628674128
 30
0.0
 40
0.0625
  0
CIRCLE
  5
4D
100
AcDbEntity
100
AcDbCircle
  8
IV_INTERIOR_PROFILES
 62
256
370
-1
  6
ByLayer
 10
17.375
 20
0.3904999999999887
 30
0.0
 40
0.0625
  0
CIRCLE
  5
4E
100
AcDbEntity
100
AcDbCircle
  8
IV_INTERIOR_PROFILES
 62
256
370
-1
  6
ByLayer
 10
14.7500000000000018
 20
12.9844999999999899
 30
0.0
 40
0.0625
  0
CIRCLE
  5
4F
100
AcDbEntity
100
AcDbCircle
  8
IV_INTERIOR_PROFILES
 62
256
370
-1
  6
ByLayer
 10
12.1249999999999982
 20
0.3904999999999887
 30
0.0
 40
0.0625
  0
LINE
  5
50
100
AcDbEntity
100
AcDbLine
  8
IV_OUTER_PROFILE
 62
256
370
-1
  6
ByLayer
 10
12.7499999999999982
 20
0.1874999999999893
 30
0.0
 11
12.7499999999999982
 21
-0.0000000000000107
 31
0.0
  0
LINE
  5
51
100
AcDbEntity
100
AcDbLine
  8
IV_OUTER_PROFILE
 62
256
370
-1
  6
ByLayer
 10
12.7499999999999982
 20
-0.0000000000000107
 30
0.0
 11
11.5000000000000018
 21
0.0
 31
0.0
  0
LINE
  5
52
100
AcDbEntity
100
AcDbLine
  8
IV_OUTER_PROFILE
 62
256
370
-1
  6
ByLayer
 10
11.5000000000000018
 20
0.0
 30
0.0
 11
11.4999999999999947
 21
0.1875
 31
0.0
  0
LINE
  5
53
100
AcDbEntity
100
AcDbLine
  8
IV_OUTER_PROFILE
 62
256
370
-1
  6
ByLayer
 10
18.0
 20
0.1874999999999893
 30
0.0
 11
18.0
 21
-0.0000000000000107
 31
0.0
  0
LINE
  5
54
100
AcDbEntity
100
AcDbLine
  8
IV_OUTER_PROFILE
 62
256
370
-1
  6
ByLayer
 10
18.0
 20
-0.0000000000000107
 30
0.0
 11
16.75
 21
-0.0000000000000107
 31
0.0
  0
LINE
  5
55
100
AcDbEntity
100
AcDbLine
  8
IV_OUTER_PROFILE
 62
256
370
-1
  6
ByLayer
 10
16.75
 20
-0.0000000000000107
 30
0.0
 11
16.7499999999999929
 21
0.1874999999999893
 31
0.0
  0
LINE
  5
56
100
AcDbEntity
100
AcDbLine
  8
IV_OUTER_PROFILE
 62
256
370
-1
  6
ByLayer
 10
19.6875
 20
0.1874999999999893
 30
0.0
 11
18.0
 21
0.1874999999999893
 31
0.0
  0
LINE
  5
57
100
AcDbEntity
100
AcDbLine
  8
IV_OUTER_PROFILE
 62
256
370
-1
  6
ByLayer
 10
11.4999999999999947
 20
0.1875
 30
0.0
 11
9.8124999999999982
 21
0.1875000000000018
 31
0.0
  0
LINE
  5
58
100
AcDbEntity
100
AcDbLine
  8
IV_OUTER_PROFILE
 62
256
370
-1
  6
ByLayer
 10
16.7499999999999929
 20
0.1874999999999893
 30
0.0
 11
12.7499999999999982
 21
0.1874999999999893
 31
0.0
  0
LINE
  5
59
100
AcDbEntity
100
AcDbLine
  8
IV_OUTER_PROFILE
 62
256
370
-1
  6
ByLayer
 10
19.6875
 20
0.1874999999999893
 30
0.0
 11
19.9261545186708915
 21
2.2558391618143796
 31
0.0
  0
LINE
  5
5A
100
AcDbEntity
100
AcDbLine
  8
IV_OUTER_PROFILE
 62
256
370
-1
  6
ByLayer
 10
9.5738454813291067
 20
2.2558391618143796
 30
0.0
 11
9.8124999999999982
 21
0.1875000000000018
 31
0.0
  0
ARC
  5
5B
100
AcDbEntity
  8
IV_OUTER_PROFILE
 62
256
370
-1
  6
ByLayer
100
AcDbCircle
 10
20.75
 20
7.1874999999999858
 30
0.0
 40
5.0
100
AcDbArc
 50
180.0
 51
260.5161789318564161
  0
LINE
  5
5C
100
AcDbEntity
100
AcDbLine
  8
IV_OUTER_PROFILE
 62
256
370
-1
  6
ByLayer
 10
15.7500000000000018
 20
13.1874999999999893
 30
0.0
 11
15.7499999999999982
 21
7.1874999999999893
 31
0.0
  0
LINE
  5
5D
100
AcDbEntity
100
AcDbLine
  8
IV_OUTER_PROFILE
 62
256
370
-1
  6
ByLayer
 10
15.4999999999999982
 20
13.1874999999999893
 30
0.0
 11
15.7500000000000018
 21
13.1874999999999893
 31
0.0
  0
LINE
  5
5E
100
AcDbEntity
100
AcDbLine
  8
IV_OUTER_PROFILE
 62
256
370
-1
  6
ByLayer
 10
15.4999999999999982
 20
13.3624999999999901
 30
0.0
 11
15.4999999999999982
 21
13.1874999999999893
 31
0.0
  0
ARC
  5
5F
100
AcDbEntity
  8
IV_OUTER_PROFILE
 62
256
370
-1
  6
ByLayer
100
AcDbCircle
 10
15.0000000000000053
 20
13.3624999999999901
 30
0.0
 40
0.5
100
AcDbArc
 50
0.0
 51
90.0
  0
LINE
  5
60
100
AcDbEntity
100
AcDbLine
  8
IV_OUTER_PROFILE
 62
256
370
-1
  6
ByLayer
 10
14.5000000000000053
 20
13.8624999999999901
 30
0.0
 11
14.9999999999999982
 21
13.8624999999999901
 31
0.0
  0
ARC
  5
61
100
AcDbEntity
  8
IV_OUTER_PROFILE
 62
256
370
-1
  6
ByLayer
100
AcDbCircle
 10
14.5000000000000018
 20
13.3624999999999901
 30
0.0
 40
0.5
100
AcDbArc
 50
90.0
 51
180.0
  0
LINE
  5
62
100
AcDbEntity
100
AcDbLine
  8
IV_OUTER_PROFILE
 62
256
370
-1
  6
ByLayer
 10
14.0000000000000018
 20
13.1874999999999893
 30
0.0
 11
14.0000000000000018
 21
13.3624999999999901
 31
0.0
  0
LINE
  5
63
100
AcDbEntity
100
AcDbLine
  8
IV_OUTER_PROFILE
 62
256
370
-1
  6
ByLayer
 10
13.7500000000000124
 20
13.1874999999999893
 30
0.0
 11
14.0000000000000018
 21
13.1874999999999893
 31
0.0
  0
LINE
  5
64
100
AcDbEntity
100
AcDbLine
  8
IV_OUTER_PROFILE
 62
256
370
-1
  6
ByLayer
 10
13.7499999999999982
 20
7.1874999999999893
 30
0.0
 11
13.7500000000000124
 21
13.1874999999999893
 31
0.0
  0
ARC
  5
65
100
AcDbEntity
  8
IV_OUTER_PROFILE
 62
256
370
-1
  6
ByLayer
100
AcDbCircle
 10
8.7500000000000018
 20
7.1874999999999947
 30
0.0
 40
5.0
100
AcDbArc
 50
279.4838210681435839
 51
0.0
  0
CIRCLE
  5
66
100
AcDbEntity
100
AcDbCircle
  8
IV_INTERIOR_PROFILES
 62
256
370
-1
  6
ByLayer
 10
17.2867173193700907
 20
16.4765000000000015
 30
0.0
 40
0.0625
  0
CIRCLE
  5
67
100
AcDbEntity
100
AcDbCircle
  8
IV_INTERIOR_PROFILES
 62
256
370
-1
  6
ByLayer
 10
20.3661662268504067
 20
16.4765000000000015
 30
0.0
 40
0.0625
  0
CIRCLE
  5
68
100
AcDbEntity
100
AcDbCircle
  8
IV_INTERIOR_PROFILES
 62
256
370
-1
  6
ByLayer
 10
21.2000000000000064
 20
3.2029999999999994
 30
0.0
 40
0.0625
  0
CIRCLE
  5
69
100
AcDbEntity
100
AcDbCircle
  8
IV_INTERIOR_PROFILES
 62
256
370
-1
  6
ByLayer
 10
21.3730000000000082
 20
3.9999999999999991
 30
0.0
 40
0.0625
  0
LINE
  5
6A
100
AcDbEntity
100
AcDbLine
  8
IV_OUTER_PROFILE
 62
256
370
-1
  6
ByLayer
 10
20.5750000000000099
 20
16.7609999999999992
 30
0.0
 11
20.0750000000000099
 21
16.7609999999999992
 31
0.0
  0
ARC
  5
6B
100
AcDbEntity
  8
IV_OUTER_PROFILE
 62
256
370
-1
  6
ByLayer
100
AcDbCircle
 10
20.0750000000000064
 20
16.2610000000000028
 30
0.0
 40
0.5
100
AcDbArc
 50
90.0
 51
180.0
  0
LINE
  5
6C
100
AcDbEntity
100
AcDbLine
  8
IV_OUTER_PROFILE
 62
256
370
-1
  6
ByLayer
 10
19.5750000000000064
 20
16.2610000000000028
 30
0.0
 11
19.5750000000000064
 21
16.0860000000000021
 31
0.0
  0
LINE
  5
6D
100
AcDbEntity
100
AcDbLine
  8
IV_OUTER_PROFILE
 62
256
370
-1
  6
ByLayer
 10
19.5750000000000064
 20
16.0860000000000021
 30
0.0
 11
18.0750000000000099
 21
16.0860000000000021
 31
0.0
  0
LINE
  5
6E
100
AcDbEntity
100
AcDbLine
  8
IV_OUTER_PROFILE
 62
256
370
-1
  6
ByLayer
 10
18.0750000000000099
 20
16.0860000000000021
 30
0.0
 11
18.0750000000000135
 21
16.2610000000000028
 31
0.0
  0
ARC
  5
6F
100
AcDbEntity
  8
IV_OUTER_PROFILE
 62
256
370
-1
  6
ByLayer
100
AcDbCircle
 10
17.5750000000000135
 20
16.2610000000000028
 30
0.0
 40
0.5000000000000006
100
AcDbArc
 50
360.0
 51
90.0
  0
LINE
  5
70
100
AcDbEntity
100
AcDbLine
  8
IV_OUTER_PROFILE
 62
256
370
-1
  6
ByLayer
 10
17.5750000000000064
 20
16.7610000000000028
 30
0.0
 11
17.0750000000000135
 21
16.7609999999999992
 31
0.0
  0
ARC
  5
71
100
AcDbEntity
  8
IV_OUTER_PROFILE
 62
256
370
-1
  6
ByLayer
100
AcDbCircle
 10
17.0750000000000099
 20
16.2609999999999992
 30
0.0
 40
0.5000000000000004
100
AcDbArc
 50
90.0
 51
180.0
  0
LINE
  5
72
100
AcDbEntity
100
AcDbLine
  8
IV_OUTER_PROFILE
 62
256
370
-1
  6
ByLayer
 10
16.5750000000000171
 20
16.2610000000000028
 30
0.0
 11
16.5750000000000064
 21
16.0860000000000021
 31
0.0
  0
LINE
  5
73
100
AcDbEntity
100
AcDbLine
  8
IV_OUTER_PROFILE
 62
256
370
-1
  6
ByLayer
 10
16.5750000000000064
 20
16.0860000000000021
 30
0.0
 11
15.5750000000000099
 21
16.0860000000000021
 31
0.0
  0
ARC
  5
74
100
AcDbEntity
  8
IV_OUTER_PROFILE
 62
256
370
-1
  6
ByLayer
100
AcDbCircle
 10
63.8416420110410598
 20
24.1075793822057385
 30
0.0
 40
48.9286671268186097
100
AcDbArc
 50
189.4359161252058357
 51
205.5561191079229104
  0
LINE
  5
75
100
AcDbEntity
100
AcDbLine
  8
IV_OUTER_PROFILE
 62
256
370
-1
  6
ByLayer
 10
19.7000000000000028
 20
3.0000000000000195
 30
0.0
 11
20.7000000000000064
 21
3.0
 31
0.0
  0
LINE
  5
76
100
AcDbEntity
100
AcDbLine
  8
IV_OUTER_PROFILE
 62
256
370
-1
  6
ByLayer
 10
20.7000000000000064
 20
3.0
 30
0.0
 11
20.7000000000000099
 21
2.8125
 31
0.0
  0
LINE
  5
77
100
AcDbEntity
100
AcDbLine
  8
IV_OUTER_PROFILE
 62
256
370
-1
  6
ByLayer
 10
20.7000000000000099
 20
2.8125
 30
0.0
 11
21.7000000000000028
 21
2.8125
 31
0.0
  0
LINE
  5
78
100
AcDbEntity
100
AcDbLine
  8
IV_OUTER_PROFILE
 62
256
370
-1
  6
ByLayer
 10
21.7000000000000028
 20
2.8125
 30
0.0
 11
21.7000000000000064
 21
3.0
 31
0.0
  0
LINE
  5
79
100
AcDbEntity
100
AcDbLine
  8
IV_OUTER_PROFILE
 62
256
370
-1
  6
ByLayer
 10
21.7000000000000064
 20
3.0
 30
0.0
 11
22.2000000000000028
 21
3.0
 31
0.0
  0
ARC
  5
7A
100
AcDbEntity
  8
IV_OUTER_PROFILE
 62
256
370
-1
  6
ByLayer
100
AcDbCircle
 10
72.6398501904251077
 20
12.9449319438040771
 30
0.0
 40
51.4108953296810682
100
AcDbArc
 50
176.4971997099930832
 51
191.1536166121201461
  0
LINE
  5
7B
100
AcDbEntity
100
AcDbLine
  8
IV_OUTER_PROFILE
 62
256
370
-1
  6
ByLayer
 10
21.3250000000000099
 20
16.0859999999999985
 30
0.0
 11
21.0750000000000099
 21
16.0860000000000021
 31
0.0
  0
LINE
  5
7C
100
AcDbEntity
100
AcDbLine
  8
IV_OUTER_PROFILE
 62
256
370
-1
  6
ByLayer
 10
21.0750000000000099
 20
16.0860000000000021
 30
0.0
 11
21.0750000000000064
 21
16.2610000000000028
 31
0.0
  0
ARC
  5
7D
100
AcDbEntity
  8
IV_OUTER_PROFILE
 62
256
370
-1
  6
ByLayer
100
AcDbCircle
 10
20.5750000000000099
 20
16.2609999999999992
 30
0.0
 40
0.5000000000000001
100
AcDbArc
 50
360.0
 51
90.0
  0
LINE
  5
7E
100
AcDbEntity
100
AcDbLine
  8
IV_OUTER_PROFILE
 62
7
370
25
  6
CONTINUOUS
 10
0.0
 20
13.6999999999999993
 30
0.0
 11
0.0000000000000009
 21
16.2000000000000028
 31
0.0
  0
LINE
  5
7F
100
AcDbEntity
100
AcDbLine
  8
IV_OUTER_PROFILE
 62
7
370
25
  6
CONTINUOUS
 10
10.5000000000000018
 20
13.7000000000000064
 30
0.0
 11
0.0
 21
13.6999999999999993
 31
0.0
  0
LINE
  5
80
100
AcDbEntity
100
AcDbLine
  8
IV_OUTER_PROFILE
 62
7
370
25
  6
CONTINUOUS
 10
10.5000000000000018
 20
16.2000000000000028
 30
0.0
 11
10.5000000000000018
 21
13.7000000000000064
 31
0.0
  0
ARC
  5
81
100
AcDbEntity
  8
IV_OUTER_PROFILE
 62
7
370
25
  6
CONTINUOUS
100
AcDbCircle
 10
5.2499999999999964
 20
-13.3370530012598429
 30
0.0
 40
30.0
100
AcDbArc
 50
79.9213418922079342
 51
100.0786581077920232
  0
CIRCLE
  5
82
100
AcDbEntity
100
AcDbCircle
  8
IV_INTERIOR_PROFILES
 62
7
370
25
  6
CONTINUOUS
 10
6.4507874015748037
 20
15.3564960629921288
 30
0.0
 40
0.05
  0
CIRCLE
  5
83
100
AcDbEntity
100
AcDbCircle
  8
IV_INTERIOR_PROFILES
 62
7
370
25
  6
CONTINUOUS
 10
6.1358267716535444
 20
14.2935039370078769
 30
0.0
 40
0.05
  0
CIRCLE
  5
84
100
AcDbEntity
100
AcDbCircle
  8
IV_INTERIOR_PROFILES
 62
7
370
25
  6
CONTINUOUS
 10
5.5059055118110249
 20
14.2935039370078769
 30
0.0
 40
0.05
  0
CIRCLE
  5
85
100
AcDbEntity
100
AcDbCircle
  8
IV_INTERIOR_PROFILES
 62
7
370
25
  6
CONTINUOUS
 10
5.8208661417322851
 20
14.2935039370078769
 30
0.0
 40
0.05
  0
CIRCLE
  5
86
100
AcDbEntity
100
AcDbCircle
  8
IV_INTERIOR_PROFILES
 62
7
370
25
  6
CONTINUOUS
 10
6.4507874015748037
 20
14.2935039370078769
 30
0.0
 40
0.05
  0
CIRCLE
  5
87
100
AcDbEntity
100
AcDbCircle
  8
IV_INTERIOR_PROFILES
 62
7
370
25
  6
CONTINUOUS
 10
6.1358267716535444
 20
15.3564960629921288
 30
0.0
 40
0.05
  0
CIRCLE
  5
88
100
AcDbEntity
100
AcDbCircle
  8
IV_INTERIOR_PROFILES
 62
7
370
25
  6
CONTINUOUS
 10
5.5059055118110249
 20
15.3564960629921288
 30
0.0
 40
0.05
  0
LINE
  5
89
100
AcDbEntity
100
AcDbLine
  8
IV_INTERIOR_PROFILES
 62
7
370
25
  6
CONTINUOUS
 10
6.5885826771653555
 20
14.4312992125984287
 30
0.0
 11
5.4735790687401593
 21
14.4312992125984287
 31
0.0
  0
ARC
  5
8A
100
AcDbEntity
  8
IV_INTERIOR_PROFILES
 62
7
370
25
  6
CONTINUOUS
100
AcDbCircle
 10
5.2500000000000009
 20
14.8250000000000028
 30
0.0
 40
0.452755905511811
100
AcDbArc
 50
60.4081542051839264
 51
299.5918457948160381
  0
LINE
  5
8B
100
AcDbEntity
100
AcDbLine
  8
IV_INTERIOR_PROFILES
 62
7
370
25
  6
CONTINUOUS
 10
5.4735790687401593
 20
15.2187007874015769
 30
0.0
 11
6.5885826771653564
 21
15.2187007874015769
 31
0.0
  0
LINE
  5
8C
100
AcDbEntity
100
AcDbLine
  8
IV_INTERIOR_PROFILES
 62
7
370
25
  6
CONTINUOUS
 10
6.5885826771653564
 20
15.2187007874015769
 30
0.0
 11
6.5885826771653555
 21
14.4312992125984287
 31
0.0
  0
LINE
  5
8D
100
AcDbEntity
100
AcDbLine
  8
IV_INTERIOR_PROFILES
 62
7
370
25
  6
CONTINUOUS
 10
0.1250000000000018
 20
14.7000000000000259
 30
0.0
 11
0.1250000000000018
 21
15.7000000000000028
 31
0.0
  0
LINE
  5
8E
100
AcDbEntity
100
AcDbLine
  8
IV_INTERIOR_PROFILES
 62
7
370
25
  6
CONTINUOUS
 10
0.1250000000000018
 20
15.7000000000000028
 30
0.0
 11
0.3164370078740166
 21
15.7000000000000028
 31
0.0
  0
LINE
  5
8F
100
AcDbEntity
100
AcDbLine
  8
IV_INTERIOR_PROFILES
 62
7
370
25
  6
CONTINUOUS
 10
0.3164370078740166
 20
15.7000000000000028
 30
0.0
 11
0.3164370078740166
 21
14.7000000000000277
 31
0.0
  0
LINE
  5
90
100
AcDbEntity
100
AcDbLine
  8
IV_INTERIOR_PROFILES
 62
7
370
25
  6
CONTINUOUS
 10
0.3164370078740166
 20
14.7000000000000277
 30
0.0
 11
0.1250000000000018
 21
14.7000000000000259
 31
0.0
  0
LINE
  5
91
100
AcDbEntity
100
AcDbLine
  8
IV_INTERIOR_PROFILES
 62
7
370
25
  6
CONTINUOUS
 10
10.1835629921259834
 20
14.7000000000000313
 30
0.0
 11
10.1835629921259834
 21
15.7000000000000028
 31
0.0
  0
LINE
  5
92
100
AcDbEntity
100
AcDbLine
  8
IV_INTERIOR_PROFILES
 62
7
370
25
  6
CONTINUOUS
 10
10.1835629921259834
 20
15.7000000000000028
 30
0.0
 11
10.3750000000000018
 21
15.6999999999999993
 31
0.0
  0
LINE
  5
93
100
AcDbEntity
100
AcDbLine
  8
IV_INTERIOR_PROFILES
 62
7
370
25
  6
CONTINUOUS
 10
10.3750000000000018
 20
15.6999999999999993
 30
0.0
 11
10.375
 21
14.6999999999999904
 31
0.0
  0
LINE
  5
94
100
AcDbEntity
100
AcDbLine
  8
IV_INTERIOR_PROFILES
 62
7
370
25
  6
CONTINUOUS
 10
10.375
 20
14.6999999999999904
 30
0.0
 11
10.1835629921259834
 21
14.7000000000000313
 31
0.0
  0
LINE
  5
95
100
AcDbEntity
100
AcDbLine
  8
IV_INTERIOR_PROFILES
 62
7
370
25
  6
CONTINUOUS
 10
7.2500000000000018
 20
15.5750000000000028
 30
0.0
 11
7.2500000000000018
 21
15.7585629921259844
 31
0.0
  0
LINE
  5
96
100
AcDbEntity
100
AcDbLine
  8
IV_INTERIOR_PROFILES
 62
7
370
25
  6
CONTINUOUS
 10
7.2500000000000018
 20
15.7585629921259844
 30
0.0
 11
8.5000000000000018
 21
15.7585629921259844
 31
0.0
  0
LINE
  5
97
100
AcDbEntity
100
AcDbLine
  8
IV_INTERIOR_PROFILES
 62
7
370
25
  6
CONTINUOUS
 10
8.5000000000000018
 20
15.7585629921259844
 30
0.0
 11
8.5000000000000018
 21
15.5749999999999993
 31
0.0
  0
LINE
  5
98
100
AcDbEntity
100
AcDbLine
  8
IV_INTERIOR_PROFILES
 62
7
370
25
  6
CONTINUOUS
 10
8.5000000000000018
 20
15.5749999999999993
 30
0.0
 11
7.2500000000000018
 21
15.5750000000000028
 31
0.0
  0
CIRCLE
  5
99
100
AcDbEntity
100
AcDbCircle
  8
IV_INTERIOR_PROFILES
 62
7
370
25
  6
CONTINUOUS
 10
3.2500000000000018
 20
14.7000000000000028
 30
0.0
 40
0.5374015748031497
  0
CIRCLE
  5
9A
100
AcDbEntity
100
AcDbCircle
  8
IV_INTERIOR_PROFILES
 62
7
370
25
  6
CONTINUOUS
 10
1.7500000000000018
 20
14.6999999999999957
 30
0.0
 40
0.5374015748031497
  0
CIRCLE
  5
9B
100
AcDbEntity
100
AcDbCircle
  8
IV_INTERIOR_PROFILES
 62
7
370
25
  6
CONTINUOUS
 10
7.8750000000000009
 20
15.3250000000000011
 30
0.0
 40
0.0625
  0
CIRCLE
  5
9C
100
AcDbEntity
100
AcDbCircle
  8
IV_INTERIOR_PROFILES
 62
7
370
25
  6
CONTINUOUS
 10
9.9335629921259851
 20
15.2000000000000028
 30
0.0
 40
0.0625
  0
CIRCLE
  5
9D
100
AcDbEntity
100
AcDbCircle
  8
IV_INTERIOR_PROFILES
 62
7
370
25
  6
CONTINUOUS
 10
5.8208661417322851
 20
15.3564960629921288
 30
0.0
 40
0.05
  0
CIRCLE
  5
9E
100
AcDbEntity
100
AcDbCircle
  8
IV_INTERIOR_PROFILES
 62
7
370
25
  6
CONTINUOUS
 10
0.5664370078740166
 20
15.2000000000000028
 30
0.0
 40
0.0625
  0
LINE
  5
9F
100
AcDbEntity
100
AcDbLine
  8
IV_INTERIOR_PROFILES
 62
7
370
25
  6
CONTINUOUS
 10
2.0000000000000018
 20
15.5750000000000028
 30
0.0
 11
2.0000000000000013
 21
15.7585629921259844
 31
0.0
  0
LINE
  5
A0
100
AcDbEntity
100
AcDbLine
  8
IV_INTERIOR_PROFILES
 62
7
370
25
  6
CONTINUOUS
 10
2.0000000000000013
 20
15.7585629921259844
 30
0.0
 11
3.2500000000000013
 21
15.7585629921259844
 31
0.0
  0
LINE
  5
A1
100
AcDbEntity
100
AcDbLine
  8
IV_INTERIOR_PROFILES
 62
7
370
25
  6
CONTINUOUS
 10
3.2500000000000013
 20
15.7585629921259844
 30
0.0
 11
3.2500000000000018
 21
15.5750000000000028
 31
0.0
  0
LINE
  5
A2
100
AcDbEntity
100
AcDbLine
  8
IV_INTERIOR_PROFILES
 62
7
370
25
  6
CONTINUOUS
 10
3.2500000000000018
 20
15.5750000000000028
 30
0.0
 11
2.0000000000000018
 21
15.5750000000000028
 31
0.0
  0
CIRCLE
  5
A3
100
AcDbEntity
100
AcDbCircle
  8
IV_INTERIOR_PROFILES
 62
7
370
25
  6
CONTINUOUS
 10
2.6250000000000022
 20
15.3250000000000046
 30
0.0
 40
0.0625
  0
CIRCLE
  5
A4
100
AcDbEntity
100
AcDbCircle
  8
IV_INTERIOR_PROFILES
 62
256
370
-1
  6
ByLayer
 10
0.2845000000000013
 20
20.988282680629915
 30
0.0
 40
0.0625
  0
CIRCLE
  5
A5
100
AcDbEntity
100
AcDbCircle
  8
IV_INTERIOR_PROFILES
 62
256
370
-1
  6
ByLayer
 10
0.2844999999999978
 20
17.9088337731496097
 30
0.0
 40
0.0625
  0
CIRCLE
  5
A6
100
AcDbEntity
100
AcDbCircle
  8
IV_INTERIOR_PROFILES
 62
256
370
-1
  6
ByLayer
 10
13.5579999999999998
 20
17.0749999999999957
 30
0.0
 40
0.0625
  0
CIRCLE
  5
A7
100
AcDbEntity
100
AcDbCircle
  8
IV_INTERIOR_PROFILES
 62
256
370
-1
  6
ByLayer
 10
12.7610000000000028
 20
16.9019999999999939
 30
0.0
 40
0.0625
  0
LINE
  5
A8
100
AcDbEntity
100
AcDbLine
  8
IV_OUTER_PROFILE
 62
256
370
-1
  6
ByLayer
 10
0.0
 20
17.6999999999999993
 30
0.0
 11
0.0000000000000036
 21
18.1999999999999886
 31
0.0
  0
ARC
  5
A9
100
AcDbEntity
  8
IV_OUTER_PROFILE
 62
256
370
-1
  6
ByLayer
100
AcDbCircle
 10
0.5000000000000036
 20
18.1999999999999922
 30
0.0
 40
0.5
100
AcDbArc
 50
90.0
 51
180.0
  0
LINE
  5
AA
100
AcDbEntity
100
AcDbLine
  8
IV_OUTER_PROFILE
 62
256
370
-1
  6
ByLayer
 10
0.5000000000000018
 20
18.6999999999999922
 30
0.0
 11
0.6750000000000007
 21
18.6999999999999922
 31
0.0
  0
LINE
  5
AB
100
AcDbEntity
100
AcDbLine
  8
IV_OUTER_PROFILE
 62
256
370
-1
  6
ByLayer
 10
0.6750000000000007
 20
18.6999999999999922
 30
0.0
 11
0.6750000000000007
 21
20.1999999999999993
 31
0.0
  0
LINE
  5
AC
100
AcDbEntity
100
AcDbLine
  8
IV_OUTER_PROFILE
 62
256
370
-1
  6
ByLayer
 10
0.6750000000000007
 20
20.1999999999999993
 30
0.0
 11
0.5000000000000036
 21
20.1999999999999886
 31
0.0
  0
ARC
  5
AD
100
AcDbEntity
  8
IV_OUTER_PROFILE
 62
256
370
-1
  6
ByLayer
100
AcDbCircle
 10
0.5000000000000036
 20
20.6999999999999886
 30
0.0
 40
0.5000000000000006
100
AcDbArc
 50
180.0
 51
270.0
  0
LINE
  5
AE
100
AcDbEntity
100
AcDbLine
  8
IV_OUTER_PROFILE
 62
256
370
-1
  6
ByLayer
 10
0.0000000000000036
 20
20.6999999999999922
 30
0.0
 11
0.0000000000000036
 21
21.1999999999999993
 31
0.0
  0
ARC
  5
AF
100
AcDbEntity
  8
IV_OUTER_PROFILE
 62
256
370
-1
  6
ByLayer
100
AcDbCircle
 10
0.5000000000000036
 20
21.1999999999999957
 30
0.0
 40
0.5000000000000004
100
AcDbArc
 50
90.0
 51
180.0
  0
LINE
  5
B0
100
AcDbEntity
100
AcDbLine
  8
IV_OUTER_PROFILE
 62
256
370
-1
  6
ByLayer
 10
0.5000000000000018
 20
21.6999999999999886
 30
0.0
 11
0.6750000000000025
 21
21.6999999999999922
 31
0.0
  0
LINE
  5
B1
100
AcDbEntity
100
AcDbLine
  8
IV_OUTER_PROFILE
 62
256
370
-1
  6
ByLayer
 10
0.6750000000000025
 20
21.6999999999999922
 30
0.0
 11
0.6750000000000025
 21
22.6999999999999922
 31
0.0
  0
ARC
  5
B2
100
AcDbEntity
  8
IV_OUTER_PROFILE
 62
256
370
-1
  6
ByLayer
100
AcDbCircle
 10
-7.3465793822057925
 20
-25.5666420110410328
 30
0.0
 40
48.9286671268186097
100
AcDbArc
 50
64.4438808920770327
 51
80.5640838747941785
  0
LINE
  5
B3
100
AcDbEntity
100
AcDbLine
  8
IV_OUTER_PROFILE
 62
256
370
-1
  6
ByLayer
 10
13.7609999999999886
 20
18.5750000000000028
 30
0.0
 11
13.7610000000000099
 21
17.5749999999999957
 31
0.0
  0
LINE
  5
B4
100
AcDbEntity
100
AcDbLine
  8
IV_OUTER_PROFILE
 62
256
370
-1
  6
ByLayer
 10
13.7610000000000099
 20
17.5749999999999957
 30
0.0
 11
13.9484999999999992
 21
17.5749999999999922
 31
0.0
  0
LINE
  5
B5
100
AcDbEntity
100
AcDbLine
  8
IV_OUTER_PROFILE
 62
256
370
-1
  6
ByLayer
 10
13.9484999999999992
 20
17.5749999999999922
 30
0.0
 11
13.9484999999999886
 21
16.5749999999999957
 31
0.0
  0
LINE
  5
B6
100
AcDbEntity
100
AcDbLine
  8
IV_OUTER_PROFILE
 62
256
370
-1
  6
ByLayer
 10
13.9484999999999886
 20
16.5749999999999957
 30
0.0
 11
13.7610000000000063
 21
16.5749999999999957
 31
0.0
  0
LINE
  5
B7
100
AcDbEntity
100
AcDbLine
  8
IV_OUTER_PROFILE
 62
256
370
-1
  6
ByLayer
 10
13.7610000000000063
 20
16.5749999999999957
 30
0.0
 11
13.7610000000000099
 21
16.0749999999999957
 31
0.0
  0
ARC
  5
B8
100
AcDbEntity
  8
IV_OUTER_PROFILE
 62
256
370
-1
  6
ByLayer
100
AcDbCircle
 10
3.8160680561958555
 20
-34.364850190425102
 30
0.0
 40
51.4108953296810682
100
AcDbArc
 50
78.8463833878797971
 51
93.5028002900069879
  0
LINE
  5
B9
100
AcDbEntity
100
AcDbLine
  8
IV_OUTER_PROFILE
 62
256
370
-1
  6
ByLayer
 10
0.6750000000000007
 20
16.9499999999999922
 30
0.0
 11
0.6750000000000007
 21
17.1999999999999922
 31
0.0
  0
LINE
  5
BA
100
AcDbEntity
100
AcDbLine
  8
IV_OUTER_PROFILE
 62
256
370
-1
  6
ByLayer
 10
0.6750000000000007
 20
17.1999999999999922
 30
0.0
 11
0.5
 21
17.1999999999999993
 31
0.0
  0
ARC
  5
BB
100
AcDbEntity
  8
IV_OUTER_PROFILE
 62
256
370
-1
  6
ByLayer
100
AcDbCircle
 10
0.4999999999999964
 20
17.7000000000000064
 30
0.0
 40
0.5000000000000001
100
AcDbArc
 50
180.0
 51
270.0
  0
CIRCLE
  5
BC
100
AcDbEntity
100
AcDbCircle
  8
IV_INTERIOR_PROFILES
 62
256
370
-1
  6
ByLayer
 10
10.0000000000000053
 20
9.9149606299212589
 30
0.0
 40
0.05
  0
CIRCLE
  5
BD
100
AcDbEntity
100
AcDbCircle
  8
IV_INTERIOR_PROFILES
 62
256
370
-1
  6
ByLayer
 10
10.0000000000000018
 20
9.2850393700787404
 30
0.0
 40
0.05
  0
CIRCLE
  5
BE
100
AcDbEntity
100
AcDbCircle
  8
IV_INTERIOR_PROFILES
 62
256
370
-1
  6
ByLayer
 10
10.3149606299212646
 20
9.2850393700787404
 30
0.0
 40
0.05
  0
CIRCLE
  5
BF
100
AcDbEntity
100
AcDbCircle
  8
IV_INTERIOR_PROFILES
 62
256
370
-1
  6
ByLayer
 10
10.3149606299212646
 20
9.9149606299212589
 30
0.0
 40
0.05
  0
CIRCLE
  5
C0
100
AcDbEntity
100
AcDbCircle
  8
IV_INTERIOR_PROFILES
 62
256
370
-1
  6
ByLayer
 10
10.0000000000000053
 20
11.4749999999999996
 30
0.0
 40
0.05
  0
CIRCLE
  5
C1
100
AcDbEntity
100
AcDbCircle
  8
IV_INTERIOR_PROFILES
 62
256
370
-1
  6
ByLayer
 10
10.0000000000000018
 20
7.7249999999999996
 30
0.0
 40
0.05
  0
LINE
  5
C2
100
AcDbEntity
100
AcDbLine
  8
IV_OUTER_PROFILE
 62
256
370
-1
  6
ByLayer
 10
9.5000000000000053
 20
10.0999999999999996
 30
0.0
 11
9.7500000000000053
 21
10.0999999999999996
 31
0.0
  0
LINE
  5
C3
100
AcDbEntity
100
AcDbLine
  8
IV_OUTER_PROFILE
 62
256
370
-1
  6
ByLayer
 10
9.7500000000000053
 20
10.0999999999999996
 30
0.0
 11
9.7500000000000053
 21
9.0999999999999996
 31
0.0
  0
LINE
  5
C4
100
AcDbEntity
100
AcDbLine
  8
IV_OUTER_PROFILE
 62
256
370
-1
  6
ByLayer
 10
9.7500000000000053
 20
9.0999999999999996
 30
0.0
 11
9.5000000000000018
 21
9.0999999999999996
 31
0.0
  0
LINE
  5
C5
100
AcDbEntity
100
AcDbLine
  8
IV_OUTER_PROFILE
 62
256
370
-1
  6
ByLayer
 10
9.5000000000000018
 20
9.0999999999999996
 30
0.0
 11
9.5000000000000053
 21
7.0999999999999996
 31
0.0
  0
LINE
  5
C6
100
AcDbEntity
100
AcDbLine
  8
IV_OUTER_PROFILE
 62
256
370
-1
  6
ByLayer
 10
9.5000000000000053
 20
7.0999999999999996
 30
0.0
 11
10.5000000000000018
 21
7.0999999999999996
 31
0.0
  0
LINE
  5
C7
100
AcDbEntity
100
AcDbLine
  8
IV_OUTER_PROFILE
 62
256
370
-1
  6
ByLayer
 10
10.5000000000000018
 20
7.0999999999999996
 30
0.0
 11
10.5000000000000018
 21
12.0999999999999996
 31
0.0
  0
LINE
  5
C8
100
AcDbEntity
100
AcDbLine
  8
IV_OUTER_PROFILE
 62
256
370
-1
  6
ByLayer
 10
10.5000000000000018
 20
12.0999999999999996
 30
0.0
 11
9.5000000000000053
 21
12.0999999999999996
 31
0.0
  0
LINE
  5
C9
100
AcDbEntity
100
AcDbLine
  8
IV_OUTER_PROFILE
 62
256
370
-1
  6
ByLayer
 10
9.5000000000000053
 20
12.0999999999999996
 30
0.0
 11
9.5000000000000053
 21
10.0999999999999996
 31
0.0
  0
CIRCLE
  5
CA
100
AcDbEntity
100
AcDbCircle
  8
IV_INTERIOR_PROFILES
 62
256
370
-1
  6
ByLayer
 10
9.3750000000000018
 20
4.1155879705905463
 30
0.0
 40
0.0625
  0
CIRCLE
  5
CB
100
AcDbEntity
100
AcDbCircle
  8
IV_INTERIOR_PROFILES
 62
256
370
-1
  6
ByLayer
 10
6.1250000000000027
 20
3.4320249784645616
 30
0.0
 40
0.0625
  0
CIRCLE
  5
CC
100
AcDbEntity
100
AcDbCircle
  8
IV_INTERIOR_PROFILES
 62
256
370
-1
  6
ByLayer
 10
4.0
 20
12.9335629921259798
 30
0.0
 40
0.0625
  0
CIRCLE
  5
CD
100
AcDbEntity
100
AcDbCircle
  8
IV_INTERIOR_PROFILES
 62
256
370
-1
  6
ByLayer
 10
8.0000000000000018
 20
6.7499999999999973
 30
0.0
 40
0.0625
  0
CIRCLE
  5
CE
100
AcDbEntity
100
AcDbCircle
  8
IV_INTERIOR_PROFILES
 62
256
370
-1
  6
ByLayer
 10
4.0
 20
0.5664370078740125
 30
0.0
 40
0.0625
  0
CIRCLE
  5
CF
100
AcDbEntity
100
AcDbCircle
  8
IV_INTERIOR_PROFILES
 62
256
370
-1
  6
ByLayer
 10
7.0
 20
0.5664370078740139
 30
0.0
 40
0.0625
  0
CIRCLE
  5
D0
100
AcDbEntity
100
AcDbCircle
  8
IV_INTERIOR_PROFILES
 62
256
370
-1
  6
ByLayer
 10
7.0000000000000053
 20
12.9335629921259763
 30
0.0
 40
0.0625
  0
CIRCLE
  5
D1
100
AcDbEntity
100
AcDbCircle
  8
IV_INTERIOR_PROFILES
 62
256
370
-1
  6
ByLayer
 10
10.7814960629921277
 20
4.2992125984251901
 30
0.0
 40
0.05
  0
CIRCLE
  5
D2
100
AcDbEntity
100
AcDbCircle
  8
IV_INTERIOR_PROFILES
 62
256
370
-1
  6
ByLayer
 10
10.7814960629921242
 20
4.9291338582677131
 30
0.0
 40
0.05
  0
CIRCLE
  5
D3
100
AcDbEntity
100
AcDbCircle
  8
IV_INTERIOR_PROFILES
 62
256
370
-1
  6
ByLayer
 10
9.7185039370078758
 20
5.2440944881889733
 30
0.0
 40
0.05
  0
CIRCLE
  5
D4
100
AcDbEntity
100
AcDbCircle
  8
IV_INTERIOR_PROFILES
 62
256
370
-1
  6
ByLayer
 10
9.7185039370078758
 20
4.6141732283464512
 30
0.0
 40
0.05
  0
CIRCLE
  5
D5
100
AcDbEntity
100
AcDbCircle
  8
IV_INTERIOR_PROFILES
 62
256
370
-1
  6
ByLayer
 10
9.7185039370078758
 20
4.2992125984251883
 30
0.0
 40
0.05
  0
CIRCLE
  5
D6
100
AcDbEntity
100
AcDbCircle
  8
IV_INTERIOR_PROFILES
 62
256
370
-1
  6
ByLayer
 10
9.7185039370078758
 20
4.9291338582677131
 30
0.0
 40
0.05
  0
CIRCLE
  5
D7
100
AcDbEntity
100
AcDbCircle
  8
IV_INTERIOR_PROFILES
 62
256
370
-1
  6
ByLayer
 10
10.7814960629921242
 20
5.2440944881889733
 30
0.0
 40
0.05
  0
CIRCLE
  5
D8
100
AcDbEntity
100
AcDbCircle
  8
IV_INTERIOR_PROFILES
 62
256
370
-1
  6
ByLayer
 10
10.7814960629921242
 20
4.6141732283464503
 30
0.0
 40
0.05
  0
CIRCLE
  5
D9
100
AcDbEntity
100
AcDbCircle
  8
IV_INTERIOR_PROFILES
 62
256
370
-1
  6
ByLayer
 10
6.0015748031496079
 20
2.3616141732283435
 30
0.0
 40
0.075
  0
CIRCLE
  5
DA
100
AcDbEntity
100
AcDbCircle
  8
IV_INTERIOR_PROFILES
 62
256
370
-1
  6
ByLayer
 10
3.2515748031496088
 20
11.1383858267716516
 30
0.0
 40
0.075
  0
CIRCLE
  5
DB
100
AcDbEntity
100
AcDbCircle
  8
IV_INTERIOR_PROFILES
 62
256
370
-1
  6
ByLayer
 10
3.251574803149607
 20
2.361614173228344
 30
0.0
 40
0.075
  0
CIRCLE
  5
DC
100
AcDbEntity
100
AcDbCircle
  8
IV_INTERIOR_PROFILES
 62
256
370
-1
  6
ByLayer
 10
6.001574803149615
 20
11.138385826771648
 30
0.0
 40
0.075
  0
LINE
  5
DD
100
AcDbEntity
100
AcDbLine
  8
IV_INTERIOR_PROFILES
 62
256
370
-1
  6
ByLayer
 10
4.7500000000000089
 20
13.3749999999999982
 30
0.0
 11
4.7500000000000071
 21
13.1835629921259763
 31
0.0
  0
LINE
  5
DE
100
AcDbEntity
100
AcDbLine
  8
IV_INTERIOR_PROFILES
 62
256
370
-1
  6
ByLayer
 10
3.2500000000000053
 20
13.3749999999999982
 30
0.0
 11
4.7500000000000089
 21
13.3749999999999982
 31
0.0
  0
LINE
  5
DF
100
AcDbEntity
100
AcDbLine
  8
IV_INTERIOR_PROFILES
 62
256
370
-1
  6
ByLayer
 10
3.25
 20
13.1835629921259798
 30
0.0
 11
3.2500000000000053
 21
13.3749999999999982
 31
0.0
  0
LINE
  5
E0
100
AcDbEntity
100
AcDbLine
  8
IV_INTERIOR_PROFILES
 62
256
370
-1
  6
ByLayer
 10
4.7500000000000071
 20
13.1835629921259763
 30
0.0
 11
3.25
 21
13.1835629921259798
 31
0.0
  0
LINE
  5
E1
100
AcDbEntity
100
AcDbLine
  8
IV_INTERIOR_PROFILES
 62
256
370
-1
  6
ByLayer
 10
4.75
 20
0.3164370078740116
 30
0.0
 11
4.75
 21
0.1249999999999978
 31
0.0
  0
LINE
  5
E2
100
AcDbEntity
100
AcDbLine
  8
IV_INTERIOR_PROFILES
 62
256
370
-1
  6
ByLayer
 10
3.25
 20
0.3164370078740136
 30
0.0
 11
4.75
 21
0.3164370078740116
 31
0.0
  0
LINE
  5
E3
100
AcDbEntity
100
AcDbLine
  8
IV_INTERIOR_PROFILES
 62
256
370
-1
  6
ByLayer
 10
3.25
 20
0.1249999999999982
 30
0.0
 11
3.25
 21
0.3164370078740136
 31
0.0
  0
LINE
  5
E4
100
AcDbEntity
100
AcDbLine
  8
IV_INTERIOR_PROFILES
 62
256
370
-1
  6
ByLayer
 10
4.75
 20
0.1249999999999978
 30
0.0
 11
3.25
 21
0.1249999999999982
 31
0.0
  0
LINE
  5
E5
100
AcDbEntity
100
AcDbLine
  8
IV_INTERIOR_PROFILES
 62
256
370
-1
  6
ByLayer
 10
8.4335629921259905
 20
7.499999999999992
 30
0.0
 11
8.4335629921259869
 21
5.9999999999999938
 31
0.0
  0
LINE
  5
E6
100
AcDbEntity
100
AcDbLine
  8
IV_INTERIOR_PROFILES
 62
256
370
-1
  6
ByLayer
 10
8.2500000000000018
 20
7.4999999999999947
 30
0.0
 11
8.4335629921259905
 21
7.499999999999992
 31
0.0
  0
LINE
  5
E7
100
AcDbEntity
100
AcDbLine
  8
IV_INTERIOR_PROFILES
 62
256
370
-1
  6
ByLayer
 10
8.2500000000000018
 20
5.9999999999999982
 30
0.0
 11
8.2500000000000018
 21
7.4999999999999947
 31
0.0
  0
LINE
  5
E8
100
AcDbEntity
100
AcDbLine
  8
IV_INTERIOR_PROFILES
 62
256
370
-1
  6
ByLayer
 10
8.4335629921259869
 20
5.9999999999999938
 30
0.0
 11
8.2500000000000018
 21
5.9999999999999982
 31
0.0
  0
LINE
  5
E9
100
AcDbEntity
100
AcDbLine
  8
IV_INTERIOR_PROFILES
 62
256
370
-1
  6
ByLayer
 10
7.7500000000000009
 20
0.3164370078740141
 30
0.0
 11
7.75
 21
0.1249999999999944
 31
0.0
  0
LINE
  5
EA
100
AcDbEntity
100
AcDbLine
  8
IV_INTERIOR_PROFILES
 62
256
370
-1
  6
ByLayer
 10
6.25
 20
0.3164370078740149
 30
0.0
 11
7.7500000000000009
 21
0.3164370078740141
 31
0.0
  0
LINE
  5
EB
100
AcDbEntity
100
AcDbLine
  8
IV_INTERIOR_PROFILES
 62
256
370
-1
  6
ByLayer
 10
6.25
 20
0.1249999999999966
 30
0.0
 11
6.25
 21
0.3164370078740149
 31
0.0
  0
LINE
  5
EC
100
AcDbEntity
100
AcDbLine
  8
IV_INTERIOR_PROFILES
 62
256
370
-1
  6
ByLayer
 10
7.75
 20
0.1249999999999944
 30
0.0
 11
6.25
 21
0.1249999999999966
 31
0.0
  0
LINE
  5
ED
100
AcDbEntity
100
AcDbLine
  8
IV_INTERIOR_PROFILES
 62
256
370
-1
  6
ByLayer
 10
7.7500000000000044
 20
13.3749999999999947
 30
0.0
 11
7.7500000000000044
 21
13.1835629921259763
 31
0.0
  0
LINE
  5
EE
100
AcDbEntity
100
AcDbLine
  8
IV_INTERIOR_PROFILES
 62
256
370
-1
  6
ByLayer
 10
6.2500000000000018
 20
13.3749999999999982
 30
0.0
 11
7.7500000000000044
 21
13.3749999999999947
 31
0.0
  0
LINE
  5
EF
100
AcDbEntity
100
AcDbLine
  8
IV_INTERIOR_PROFILES
 62
256
370
-1
  6
ByLayer
 10
6.2500000000000107
 20
13.1835629921259763
 30
0.0
 11
6.2500000000000018
 21
13.3749999999999982
 31
0.0
  0
LINE
  5
F0
100
AcDbEntity
100
AcDbLine
  8
IV_INTERIOR_PROFILES
 62
256
370
-1
  6
ByLayer
 10
7.7500000000000044
 20
13.1835629921259763
 30
0.0
 11
6.2500000000000107
 21
13.1835629921259763
 31
0.0
  0
LINE
  5
F1
100
AcDbEntity
100
AcDbLine
  8
IV_INTERIOR_PROFILES
 62
256
370
-1
  6
ByLayer
 10
9.8562992125984241
 20
4.1614173228346436
 30
0.0
 11
9.8562992125984277
 21
5.2764209312992056
 31
0.0
  0
LINE
  5
F2
100
AcDbEntity
100
AcDbLine
  8
IV_INTERIOR_PROFILES
 62
256
370
-1
  6
ByLayer
 10
10.6437007874015759
 20
4.1614173228346392
 30
0.0
 11
9.8562992125984241
 21
4.1614173228346436
 31
0.0
  0
LINE
  5
F3
100
AcDbEntity
100
AcDbLine
  8
IV_INTERIOR_PROFILES
 62
256
370
-1
  6
ByLayer
 10
10.6437007874015723
 20
5.2764209312992101
 30
0.0
 11
10.6437007874015759
 21
4.1614173228346392
 31
0.0
  0
ARC
  5
F4
100
AcDbEntity
  8
IV_INTERIOR_PROFILES
 62
256
370
-1
  6
ByLayer
100
AcDbCircle
 10
10.2499999999999947
 20
5.5000000000104086
 30
0.0
 40
0.4527559055013957
100
AcDbArc
 50
330.4081542083702061
 51
209.5918457916297939
  0
CIRCLE
  5
F5
100
AcDbEntity
100
AcDbCircle
  8
IV_INTERIOR_PROFILES
 62
256
370
-1
  6
ByLayer
 10
8.6835629921259869
 20
4.7499999999999929
 30
0.0
 40
0.25
  0
ARC
  5
F6
100
AcDbEntity
  8
IV_INTERIOR_PROFILES
 62
256
370
-1
  6
ByLayer
100
AcDbCircle
 10
7.174999999999998
 20
11.5749999999999975
 30
0.0
 40
0.2500000000000019
100
AcDbArc
 50
270.0
 51
360.0
  0
LINE
  5
F7
100
AcDbEntity
100
AcDbLine
  8
IV_INTERIOR_PROFILES
 62
256
370
-1
  6
ByLayer
 10
7.4250000000000069
 20
11.9249999999999954
 30
0.0
 11
7.4250000000000069
 21
11.574999999999994
 31
0.0
  0
ARC
  5
F8
100
AcDbEntity
  8
IV_INTERIOR_PROFILES
 62
256
370
-1
  6
ByLayer
100
AcDbCircle
 10
7.1749999999999998
 20
11.9249999999999989
 30
0.0
 40
0.2500000000000006
100
AcDbArc
 50
360.0
 51
90.0
  0
LINE
  5
F9
100
AcDbEntity
100
AcDbLine
  8
IV_INTERIOR_PROFILES
 62
256
370
-1
  6
ByLayer
 10
6.8249999999999948
 20
12.1749999999999989
 30
0.0
 11
7.1750000000000007
 21
12.1749999999999989
 31
0.0
  0
ARC
  5
FA
100
AcDbEntity
  8
IV_INTERIOR_PROFILES
 62
256
370
-1
  6
ByLayer
100
AcDbCircle
 10
6.8250000000000011
 20
11.9249999999999989
 30
0.0
 40
0.2500000000000006
100
AcDbArc
 50
90.0000000000003126
 51
180.0
  0
LINE
  5
FB
100
AcDbEntity
100
AcDbLine
  8
IV_INTERIOR_PROFILES
 62
256
370
-1
  6
ByLayer
 10
6.5750000000000064
 20
11.574999999999994
 30
0.0
 11
6.5750000000000055
 21
11.9249999999999954
 31
0.0
  0
ARC
  5
FC
100
AcDbEntity
  8
IV_INTERIOR_PROFILES
 62
256
370
-1
  6
ByLayer
100
AcDbCircle
 10
6.8250000000000028
 20
11.5749999999999975
 30
0.0
 40
0.2500000000000006
100
AcDbArc
 50
180.0
 51
269.9999999999996021
  0
LINE
  5
FD
100
AcDbEntity
100
AcDbLine
  8
IV_INTERIOR_PROFILES
 62
256
370
-1
  6
ByLayer
 10
7.1750000000000007
 20
11.3249999999999975
 30
0.0
 11
6.8249999999999957
 21
11.3249999999999975
 31
0.0
  0
ARC
  5
FE
100
AcDbEntity
  8
IV_INTERIOR_PROFILES
 62
256
370
-1
  6
ByLayer
100
AcDbCircle
 10
7.174999999999998
 20
1.5750000000000011
 30
0.0
 40
0.2500000000000014
100
AcDbArc
 50
270.0
 51
360.0
  0
LINE
  5
FF
100
AcDbEntity
100
AcDbLine
  8
IV_INTERIOR_PROFILES
 62
256
370
-1
  6
ByLayer
 10
7.4250000000000007
 20
1.9249999999999985
 30
0.0
 11
7.4250000000000007
 21
1.5749999999999988
 31
0.0
  0
ARC
  5
100
100
AcDbEntity
  8
IV_INTERIOR_PROFILES
 62
256
370
-1
  6
ByLayer
100
AcDbCircle
 10
7.1749999999999998
 20
1.9249999999999936
 30
0.0
 40
0.2500000000000006
100
AcDbArc
 50
360.0
 51
90.0
  0
LINE
  5
101
100
AcDbEntity
100
AcDbLine
  8
IV_INTERIOR_PROFILES
 62
256
370
-1
  6
ByLayer
 10
6.8250000000000002
 20
2.1749999999999936
 30
0.0
 11
7.1750000000000007
 21
2.1749999999999936
 31
0.0
  0
ARC
  5
102
100
AcDbEntity
  8
IV_INTERIOR_PROFILES
 62
256
370
-1
  6
ByLayer
100
AcDbCircle
 10
6.825000000000002
 20
1.9249999999999949
 30
0.0
 40
0.25
100
AcDbArc
 50
90.0000000000003126
 51
180.0
  0
LINE
  5
103
100
AcDbEntity
100
AcDbLine
  8
IV_INTERIOR_PROFILES
 62
256
370
-1
  6
ByLayer
 10
6.5750000000000002
 20
1.5749999999999971
 30
0.0
 11
6.5750000000000011
 21
1.9249999999999967
 31
0.0
  0
ARC
  5
104
100
AcDbEntity
  8
IV_INTERIOR_PROFILES
 62
256
370
-1
  6
ByLayer
100
AcDbCircle
 10
6.8250000000000011
 20
1.5749999999999988
 30
0.0
 40
0.2500000000000006
100
AcDbArc
 50
180.0
 51
269.9999999999996021
  0
LINE
  5
105
100
AcDbEntity
100
AcDbLine
  8
IV_INTERIOR_PROFILES
 62
256
370
-1
  6
ByLayer
 10
7.1749999999999989
 20
1.3249999999999971
 30
0.0
 11
6.8249999999999984
 21
1.324999999999998
 31
0.0
  0
LINE
  5
106
100
AcDbEntity
100
AcDbLine
  8
IV_INTERIOR_PROFILES
 62
256
370
-1
  6
ByLayer
 10
6.5000000000000036
 20
3.682024978464562
 30
0.0
 11
5.75
 21
3.6820249784645629
 31
0.0
  0
LINE
  5
107
100
AcDbEntity
100
AcDbLine
  8
IV_INTERIOR_PROFILES
 62
256
370
-1
  6
ByLayer
 10
6.5000000000000009
 20
3.865587970590548
 30
0.0
 11
6.5000000000000036
 21
3.682024978464562
 31
0.0
  0
LINE
  5
108
100
AcDbEntity
100
AcDbLine
  8
IV_INTERIOR_PROFILES
 62
256
370
-1
  6
ByLayer
 10
5.7500000000000018
 20
3.8655879705905454
 30
0.0
 11
6.5000000000000009
 21
3.865587970590548
 31
0.0
  0
LINE
  5
109
100
AcDbEntity
100
AcDbLine
  8
IV_INTERIOR_PROFILES
 62
256
370
-1
  6
ByLayer
 10
5.75
 20
3.6820249784645629
 30
0.0
 11
5.7500000000000018
 21
3.8655879705905454
 31
0.0
  0
LINE
  5
10A
100
AcDbEntity
100
AcDbLine
  8
IV_INTERIOR_PROFILES
 62
256
370
-1
  6
ByLayer
 10
9.7499999999999982
 20
3.8655879705905498
 30
0.0
 11
9.7500000000000018
 21
3.6820249784645585
 31
0.0
  0
LINE
  5
10B
100
AcDbEntity
100
AcDbLine
  8
IV_INTERIOR_PROFILES
 62
256
370
-1
  6
ByLayer
 10
9.0000000000000018
 20
3.8655879705905427
 30
0.0
 11
9.7499999999999982
 21
3.8655879705905498
 31
0.0
  0
LINE
  5
10C
100
AcDbEntity
100
AcDbLine
  8
IV_INTERIOR_PROFILES
 62
256
370
-1
  6
ByLayer
 10
9.0000000000000018
 20
3.6820249784645593
 30
0.0
 11
9.0000000000000018
 21
3.8655879705905427
 31
0.0
  0
LINE
  5
10D
100
AcDbEntity
100
AcDbLine
  8
IV_INTERIOR_PROFILES
 62
256
370
-1
  6
ByLayer
 10
9.7500000000000018
 20
3.6820249784645585
 30
0.0
 11
9.0000000000000018
 21
3.6820249784645593
 31
0.0
  0
LINE
  5
10E
100
AcDbEntity
100
AcDbLine
  8
IV_OUTER_PROFILE
 62
256
370
-1
  6
ByLayer
 10
2.5
 20
-0.0000000000000002
 30
0.0
 11
8.0
 21
-0.0000000000000021
 31
0.0
  0
ARC
  5
10F
100
AcDbEntity
  8
IV_OUTER_PROFILE
 62
256
370
-1
  6
ByLayer
100
AcDbCircle
 10
7.9999999999999982
 20
0.9999999999999934
 30
0.0
 40
1.0
100
AcDbArc
 50
270.0000000000001137
 51
360.0
  0
LINE
  5
110
100
AcDbEntity
100
AcDbLine
  8
IV_OUTER_PROFILE
 62
256
370
-1
  6
ByLayer
 10
8.9999999999999982
 20
0.9999999999999979
 30
0.0
 11
8.9999999999999982
 21
1.9999999999999982
 31
0.0
  0
ARC
  5
111
100
AcDbEntity
  8
IV_OUTER_PROFILE
 62
256
370
-1
  6
ByLayer
100
AcDbCircle
 10
10.0000000000000018
 20
1.9999999999999911
 30
0.0
 40
1.0000000000000011
100
AcDbArc
 50
90.0
 51
180.0
  0
LINE
  5
112
100
AcDbEntity
100
AcDbLine
  8
IV_OUTER_PROFILE
 62
256
370
-1
  6
ByLayer
 10
10.0000000000000018
 20
2.9999999999999929
 30
0.0
 11
10.7499999999999947
 21
2.9999999999999929
 31
0.0
  0
ARC
  5
113
100
AcDbEntity
  8
IV_OUTER_PROFILE
 62
256
370
-1
  6
ByLayer
100
AcDbCircle
 10
10.7499999999999947
 20
3.499999999999992
 30
0.0
 40
0.4999999999999986
100
AcDbArc
 50
269.9999999999997726
 51
360.0
  0
LINE
  5
114
100
AcDbEntity
100
AcDbLine
  8
IV_OUTER_PROFILE
 62
256
370
-1
  6
ByLayer
 10
11.2499999999999947
 20
3.4999999999999907
 30
0.0
 11
11.2499999999999947
 21
5.999999999999992
 31
0.0
  0
ARC
  5
115
100
AcDbEntity
  8
IV_OUTER_PROFILE
 62
256
370
-1
  6
ByLayer
100
AcDbCircle
 10
10.7499999999999947
 20
5.9999999999999956
 30
0.0
 40
0.4999999999999999
100
AcDbArc
 50
360.0
 51
90.0000000000001705
  0
LINE
  5
116
100
AcDbEntity
100
AcDbLine
  8
IV_OUTER_PROFILE
 62
256
370
-1
  6
ByLayer
 10
10.7499999999999982
 20
6.499999999999992
 30
0.0
 11
10.0000000000000053
 21
6.4999999999999902
 31
0.0
  0
ARC
  5
117
100
AcDbEntity
  8
IV_OUTER_PROFILE
 62
256
370
-1
  6
ByLayer
100
AcDbCircle
 10
10.0000000000000018
 20
7.4999999999999982
 30
0.0
 40
1.0
100
AcDbArc
 50
180.0
 51
270.0
  0
LINE
  5
118
100
AcDbEntity
100
AcDbLine
  8
IV_OUTER_PROFILE
 62
256
370
-1
  6
ByLayer
 10
9.0000000000000018
 20
7.4999999999999938
 30
0.0
 11
9.0000000000000053
 21
12.4999999999999947
 31
0.0
  0
ARC
  5
119
100
AcDbEntity
  8
IV_OUTER_PROFILE
 62
256
370
-1
  6
ByLayer
100
AcDbCircle
 10
8.0000000000000018
 20
12.4999999999999947
 30
0.0
 40
1.0
100
AcDbArc
 50
360.0
 51
89.9999999999999005
  0
LINE
  5
11A
100
AcDbEntity
100
AcDbLine
  8
IV_OUTER_PROFILE
 62
256
370
-1
  6
ByLayer
 10
8.0000000000000071
 20
13.4999999999999947
 30
0.0
 11
2.5
 21
13.4999999999999982
 31
0.0
  0
ARC
  5
11B
100
AcDbEntity
  8
IV_OUTER_PROFILE
 62
256
370
-1
  6
ByLayer
100
AcDbCircle
 10
2.5000000000000018
 20
10.9999999999999947
 30
0.0
 40
2.5000000000000022
100
AcDbArc
 50
90.0000000000000568
 51
180.0
  0
LINE
  5
11C
100
AcDbEntity
100
AcDbLine
  8
IV_OUTER_PROFILE
 62
256
370
-1
  6
ByLayer
 10
-0.0000000000000071
 20
10.9999999999999982
 30
0.0
 11
0.0000000000000018
 21
2.4999999999999982
 31
0.0
  0
ARC
  5
11D
100
AcDbEntity
  8
IV_OUTER_PROFILE
 62
256
370
-1
  6
ByLayer
100
AcDbCircle
 10
2.5000000000000018
 20
2.5
 30
0.0
 40
2.5
100
AcDbArc
 50
180.0
 51
270.0
  0
CIRCLE
  5
11E
100
AcDbEntity
100
AcDbCircle
  8
IV_INTERIOR_PROFILES
 62
256
370
-1
  6
ByLayer
 10
12.2999999999999989
 20
9.4437499999999979
 30
0.0
 40
0.05
  0
CIRCLE
  5
11F
100
AcDbEntity
100
AcDbCircle
  8
IV_INTERIOR_PROFILES
 62
256
370
-1
  6
ByLayer
 10
11.5499999999999989
 20
9.4437499999999979
 30
0.0
 40
0.05
  0
CIRCLE
  5
120
100
AcDbEntity
100
AcDbCircle
  8
IV_INTERIOR_PROFILES
 62
256
370
-1
  6
ByLayer
 10
11.5499999999999989
 20
6.7562499999999988
 30
0.0
 40
0.05
  0
CIRCLE
  5
121
100
AcDbEntity
100
AcDbCircle
  8
IV_INTERIOR_PROFILES
 62
256
370
-1
  6
ByLayer
 10
12.2999999999999989
 20
6.7562499999999988
 30
0.0
 40
0.05
  0
CIRCLE
  5
122
100
AcDbEntity
100
AcDbCircle
  8
IV_INTERIOR_PROFILES
 62
256
370
-1
  6
ByLayer
 10
12.4249999999999989
 20
9.9749999999999979
 30
0.0
 40
0.05
  0
CIRCLE
  5
123
100
AcDbEntity
100
AcDbCircle
  8
IV_INTERIOR_PROFILES
 62
256
370
-1
  6
ByLayer
 10
12.2999999999999989
 20
7.7850393700787395
 30
0.0
 40
0.05
  0
CIRCLE
  5
124
100
AcDbEntity
100
AcDbCircle
  8
IV_INTERIOR_PROFILES
 62
256
370
-1
  6
ByLayer
 10
12.2999999999999989
 20
8.4149606299212572
 30
0.0
 40
0.05
  0
CIRCLE
  5
125
100
AcDbEntity
100
AcDbCircle
  8
IV_INTERIOR_PROFILES
 62
256
370
-1
  6
ByLayer
 10
11.6700787401574804
 20
8.4149606299212607
 30
0.0
 40
0.05
  0
CIRCLE
  5
126
100
AcDbEntity
100
AcDbCircle
  8
IV_INTERIOR_PROFILES
 62
256
370
-1
  6
ByLayer
 10
11.6700787401574804
 20
7.7850393700787395
 30
0.0
 40
0.05
  0
LINE
  5
127
100
AcDbEntity
100
AcDbLine
  8
IV_OUTER_PROFILE
 62
256
370
-1
  6
ByLayer
 10
12.7999999999999989
 20
6.0999999999999988
 30
0.0
 11
12.7999999999999989
 21
10.0999999999999979
 31
0.0
  0
ARC
  5
128
100
AcDbEntity
  8
IV_OUTER_PROFILE
 62
256
370
-1
  6
ByLayer
100
AcDbCircle
 10
12.5500000000000025
 20
10.0999999999999979
 30
0.0
 40
0.25
100
AcDbArc
 50
360.0
 51
90.0000000000000711
  0
LINE
  5
129
100
AcDbEntity
100
AcDbLine
  8
IV_OUTER_PROFILE
 62
256
370
-1
  6
ByLayer
 10
12.5499999999999989
 20
10.3499999999999979
 30
0.0
 11
12.2999999999999989
 21
10.3499999999999979
 31
0.0
  0
ARC
  5
12A
100
AcDbEntity
  8
IV_OUTER_PROFILE
 62
256
370
-1
  6
ByLayer
100
AcDbCircle
 10
12.2999999999999989
 20
10.0999999999999979
 30
0.0
 40
0.25
100
AcDbArc
 50
90.0
 51
171.7867892982617946
  0
ARC
  5
12B
100
AcDbEntity
  8
IV_OUTER_PROFILE
 62
256
370
-1
  6
ByLayer
100
AcDbCircle
 10
11.433974596215565
 20
10.2249999999999979
 30
0.0
 40
0.6249999999999999
100
AcDbArc
 50
275.3258791325251309
 51
351.7867892982619082
  0
ARC
  5
12C
100
AcDbEntity
  8
IV_OUTER_PROFILE
 62
256
370
-1
  6
ByLayer
100
AcDbCircle
 10
11.5499999999999989
 20
8.9803964062093264
 30
0.0
 40
0.625
100
AcDbArc
 50
95.3258791325251593
 51
180.0
  0
LINE
  5
12D
100
AcDbEntity
100
AcDbLine
  8
IV_OUTER_PROFILE
 62
256
370
-1
  6
ByLayer
 10
10.9249999999999989
 20
8.9803964062093264
 30
0.0
 11
10.9249999999999989
 21
7.2196035937906737
 31
0.0
  0
ARC
  5
12E
100
AcDbEntity
  8
IV_OUTER_PROFILE
 62
256
370
-1
  6
ByLayer
100
AcDbCircle
 10
11.5499999999999989
 20
7.2196035937906737
 30
0.0
 40
0.625
100
AcDbArc
 50
180.0
 51
264.6741208674748691
  0
ARC
  5
12F
100
AcDbEntity
  8
IV_OUTER_PROFILE
 62
256
370
-1
  6
ByLayer
100
AcDbCircle
 10
11.433974596215565
 20
5.9749999999999988
 30
0.0
 40
0.6249999999999999
100
AcDbArc
 50
8.2132107017381131
 51
84.6741208674749544
  0
ARC
  5
130
100
AcDbEntity
  8
IV_OUTER_PROFILE
 62
256
370
-1
  6
ByLayer
100
AcDbCircle
 10
12.2999999999999989
 20
6.0999999999999988
 30
0.0
 40
0.25
100
AcDbArc
 50
188.2132107017381486
 51
270.0
  0
LINE
  5
131
100
AcDbEntity
100
AcDbLine
  8
IV_OUTER_PROFILE
 62
256
370
-1
  6
ByLayer
 10
12.2999999999999989
 20
5.8499999999999988
 30
0.0
 11
12.5499999999999989
 21
5.8499999999999988
 31
0.0
  0
ARC
  5
132
100
AcDbEntity
  8
IV_OUTER_PROFILE
 62
256
370
-1
  6
ByLayer
100
AcDbCircle
 10
12.5499999999999989
 20
6.0999999999999988
 30
0.0
 40
0.25
100
AcDbArc
 50
270.0
 51
360.0
  0
CIRCLE
  5
133
100
AcDbEntity
100
AcDbCircle
  8
IV_INTERIOR_PROFILES
 62
256
370
-1
  6
ByLayer
 10
18.9250000000000007
 20
17.3030000000000044
 30
0.0
 40
0.0625
  0
CIRCLE
  5
134
100
AcDbEntity
100
AcDbCircle
  8
IV_INTERIOR_PROFILES
 62
256
370
-1
  6
ByLayer
 10
15.6750000000000007
 20
17.3030000000000044
 30
0.0
 40
0.0625
  0
ARC
  5
135
100
AcDbEntity
  8
IV_OUTER_PROFILE
 62
256
370
-1
  6
ByLayer
100
AcDbCircle
 10
19.8000000000000007
 20
17.600000000000005
 30
0.0
 40
0.5
100
AcDbArc
 50
0.0000000000000301
 51
90.0
  0
LINE
  5
136
100
AcDbEntity
100
AcDbLine
  8
IV_OUTER_PROFILE
 62
256
370
-1
  6
ByLayer
 10
20.3000000000000007
 20
17.100000000000005
 30
0.0
 11
20.3000000000000007
 21
17.600000000000005
 31
0.0
  0
LINE
  5
137
100
AcDbEntity
100
AcDbLine
  8
IV_OUTER_PROFILE
 62
256
370
-1
  6
ByLayer
 10
19.8000000000000007
 20
18.100000000000005
 30
0.0
 11
14.8000000000000025
 21
18.100000000000005
 31
0.0
  0
ARC
  5
138
100
AcDbEntity
  8
IV_OUTER_PROFILE
 62
256
370
-1
  6
ByLayer
100
AcDbCircle
 10
14.8000000000000025
 20
17.600000000000005
 30
0.0
 40
0.5
100
AcDbArc
 50
90.0
 51
180.0
  0
LINE
  5
139
100
AcDbEntity
100
AcDbLine
  8
IV_OUTER_PROFILE
 62
256
370
-1
  6
ByLayer
 10
14.3000000000000025
 20
17.600000000000005
 30
0.0
 11
14.3000000000000007
 21
17.100000000000005
 31
0.0
  0
LINE
  5
13A
100
AcDbEntity
100
AcDbLine
  8
IV_OUTER_PROFILE
 62
256
370
-1
  6
ByLayer
 10
14.3000000000000007
 20
17.100000000000005
 30
0.0
 11
15.3000000000000007
 21
17.100000000000005
 31
0.0
  0
LINE
  5
13B
100
AcDbEntity
100
AcDbLine
  8
IV_OUTER_PROFILE
 62
256
370
-1
  6
ByLayer
 10
15.3000000000000007
 20
16.912500000000005
 30
0.0
 11
15.3000000000000007
 21
17.100000000000005
 31
0.0
  0
LINE
  5
13C
100
AcDbEntity
100
AcDbLine
  8
IV_OUTER_PROFILE
 62
256
370
-1
  6
ByLayer
 10
16.0500000000000007
 20
16.912500000000005
 30
0.0
 11
15.3000000000000007
 21
16.912500000000005
 31
0.0
  0
LINE
  5
13D
100
AcDbEntity
100
AcDbLine
  8
IV_OUTER_PROFILE
 62
256
370
-1
  6
ByLayer
 10
16.0500000000000007
 20
17.100000000000005
 30
0.0
 11
16.0500000000000007
 21
16.912500000000005
 31
0.0
  0
LINE
  5
13E
100
AcDbEntity
100
AcDbLine
  8
IV_OUTER_PROFILE
 62
256
370
-1
  6
ByLayer
 10
16.0500000000000007
 20
17.100000000000005
 30
0.0
 11
18.5500000000000007
 21
17.100000000000005
 31
0.0
  0
LINE
  5
13F
100
AcDbEntity
100
AcDbLine
  8
IV_OUTER_PROFILE
 62
256
370
-1
  6
ByLayer
 10
18.5500000000000007
 20
16.912500000000005
 30
0.0
 11
18.5500000000000007
 21
17.100000000000005
 31
0.0
  0
LINE
  5
140
100
AcDbEntity
100
AcDbLine
  8
IV_OUTER_PROFILE
 62
256
370
-1
  6
ByLayer
 10
19.3000000000000007
 20
16.912500000000005
 30
0.0
 11
18.5500000000000007
 21
16.912500000000005
 31
0.0
  0
LINE
  5
141
100
AcDbEntity
100
AcDbLine
  8
IV_OUTER_PROFILE
 62
256
370
-1
  6
ByLayer
 10
19.3000000000000007
 20
17.100000000000005
 30
0.0
 11
19.3000000000000007
 21
16.912500000000005
 31
0.0
  0
LINE
  5
142
100
AcDbEntity
100
AcDbLine
  8
IV_OUTER_PROFILE
 62
256
370
-1
  6
ByLayer
 10
19.3000000000000007
 20
17.100000000000005
 30
0.0
 11
20.3000000000000007
 21
17.100000000000005
 31
0.0
  0
CIRCLE
  5
143
100
AcDbEntity
100
AcDbCircle
  8
IV_INTERIOR_PROFILES
 62
256
370
-1
  6
ByLayer
 10
12.4249999999999989
 20
6.214999999999999
 30
0.0
 40
0.05
  0
ENDSEC
  0
SECTION
  2
OBJECTS
  0
DICTIONARY
  5
C
100
AcDbDictionary
280
0
281
1
  3
ACAD_GROUP
350
D
  3
ACAD_LAYOUT
350
1A
  3
ACAD_MLINESTYLE
350
17
  3
ACAD_PLOTSETTINGS
350
19
  3
ACAD_PLOTSTYLENAME
350
E
  3
AcDbVariableDictionary
350
144
  0
DICTIONARY
  5
D
100
AcDbDictionary
280
0
281
1
  0
ACDBDICTIONARYWDFLT
  5
E
100
AcDbDictionary
281
1
  3
Normal
350
F
100
AcDbDictionaryWithDefault
340
F
  0
ACDBPLACEHOLDER
  5
F
  0
DICTIONARY
  5
17
100
AcDbDictionary
280
0
281
1
  3
Standard
350
18
  0
MLINESTYLE
  5
18
100
AcDbMlineStyle
  2
STANDARD
 70
0
  3

 62
256
 51
90.0
 52
90.0
 71
2
 49
0.5
 62
256
  6
BYLAYER
 49
-0.5
 62
256
  6
BYLAYER
  0
DICTIONARY
  5
19
100
AcDbDictionary
280
0
281
1
  0
DICTIONARY
  5
1A
100
AcDbDictionary
281
1
  3
Layout1
350
1E
  3
Layout2
350
26
  3
Model
350
22
  0
LAYOUT
  5
1E
100
AcDbPlotSettings
  1

  2
C:\Program Files\AutoCAD 2002\plotters\DWF ePlot (optimized for plotting).pc3
  4

  6

 40
0.0
 41
0.0
 42
0.0
 43
0.0
 44
0.0
 45
0.0
 46
0.0
 47
0.0
 48
0.0
 49
0.0
140
0.0
141
0.0
142
1.0
143
1.0
 70
688
 72
0
 73
0
 74
5
  7

 75
16
147
1.0
148
0.0
149
0.0
100
AcDbLayout
  1
Layout1
 70
1
 71
1
 10
0.0
 20
0.0
 11
420.0
 21
297.0
 12
0.0
 22
0.0
 32
0.0
 14
100000000000000000000.0
 24
100000000000000000000.0
 34
100000000000000000000.0
 15
-100000000000000000000.0
 25
-100000000000000000000.0
 35
-100000000000000000000.0
146
0.0
 13
0.0
 23
0.0
 33
0.0
 16
1.0
 26
0.0
 36
0.0
 17
0.0
 27
1.0
 37
0.0
 76
0
330
1B
  0
LAYOUT
  5
22
100
AcDbPlotSettings
  1

  2
C:\Program Files\AutoCAD 2002\plotters\DWF ePlot (optimized for plotting).pc3
  4

  6

 40
0.0
 41
0.0
 42
0.0
 43
0.0
 44
0.0
 45
0.0
 46
0.0
 47
0.0
 48
0.0
 49
0.0
140
0.0
141
0.0
142
1.0
143
1.0
 70
1712
 72
0
 73
0
 74
0
  7

 75
0
147
1.0
148
0.0
149
0.0
100
AcDbLayout
  1
Model
 70
1
 71
0
 10
0.0
 20
0.0
 11
12.0
 21
9.0
 12
0.0
 22
0.0
 32
0.0
 14
0.0
 24
0.0
 34
0.0
 15
0.0
 25
0.0
 35
0.0
146
0.0
 13
0.0
 23
0.0
 33
0.0
 16
1.0
 26
0.0
 36
0.0
 17
0.0
 27
1.0
 37
0.0
 76
0
330
1F
  0
LAYOUT
  5
26
100
AcDbPlotSettings
  1

  2
C:\Program Files\AutoCAD 2002\plotters\DWF ePlot (optimized for plotting).pc3
  4

  6

 40
0.0
 41
0.0
 42
0.0
 43
0.0
 44
0.0
 45
0.0
 46
0.0
 47
0.0
 48
0.0
 49
0.0
140
0.0
141
0.0
142
1.0
143
1.0
 70
688
 72
0
 73
0
 74
5
  7

 75
16
147
1.0
148
0.0
149
0.0
100
AcDbLayout
  1
Layout2
 70
1
 71
2
 10
0.0
 20
0.0
 11
12.0
 21
9.0
 12
0.0
 22
0.0
 32
0.0
 14
0.0
 24
0.0
 34
0.0
 15
0.0
 25
0.0
 35
0.0
146
0.0
 13
0.0
 23
0.0
 33
0.0
 16
1.0
 26
0.0
 36
0.0
 17
0.0
 27
1.0
 37
0.0
 76
0
330
23
  0
DICTIONARY
  5
144
100
AcDbDictionary
281
1
  3
DIMASSOC
350
146
  3
HIDETEXT
350
145
  0
DICTIONARYVAR
  5
145
100
DictionaryVariables
280
0
  1
2
  0
DICTIONARYVAR
  5
146
100
DictionaryVariables
280
0
  1
1
  0
ENDSEC
  0
EOF
